<svg version="1.1" viewBox="0.0 0.0 669.6246719160105 184.20472440944883" fill="none" stroke="none" stroke-linecap="square" stroke-miterlimit="10" xmlns:xlink="http://www.w3.org/1999/xlink" xmlns="http://www.w3.org/2000/svg"><clipPath id="p.0"><path d="m0 0l669.6247 0l0 184.20473l-669.6247 0l0 -184.20473z" clip-rule="nonzero"/></clipPath><g clip-path="url(#p.0)"><path fill="#000000" fill-opacity="0.0" d="m0 0l669.6247 0l0 184.20473l-669.6247 0z" fill-rule="evenodd"/><path fill="#d9ead3" d="m0 15.38073l0 0c0 -3.655879 2.9636757 -6.6195555 6.619555 -6.6195555l203.70578 0c1.7556152 0 3.4393158 0.69741535 4.680725 1.9388227c1.2414093 1.2414074 1.9388275 2.9251175 1.9388275 4.6807327l0 26.477425c0 3.65588 -2.963684 6.6195564 -6.6195526 6.6195564l-203.70578 0l0 0c-3.6558793 0 -6.619555 -2.9636765 -6.619555 -6.6195564z" fill-rule="evenodd"/><path stroke="#000000" stroke-width="2.0" stroke-linejoin="round" stroke-linecap="butt" d="m0 15.38073l0 0c0 -3.655879 2.9636757 -6.6195555 6.619555 -6.6195555l203.70578 0c1.7556152 0 3.4393158 0.69741535 4.680725 1.9388227c1.2414093 1.2414074 1.9388275 2.9251175 1.9388275 4.6807327l0 26.477425c0 3.65588 -2.963684 6.6195564 -6.6195526 6.6195564l-203.70578 0l0 0c-3.6558793 0 -6.619555 -2.9636765 -6.619555 -6.6195564z" fill-rule="evenodd"/><path fill="#000000" d="m22.77029 27.366316l4.453125 0q0.296875 0 0.421875 0.125q0.125 0.109375 0.125 0.296875q0 0.171875 -0.125 0.296875q-0.125 0.109375 -0.421875 0.109375l-4.453125 0l0 5.453127q0 0.71875 0.5625 1.203125q0.578125 0.46875 1.6875 0.46875q0.828125 0 1.796875 -0.25q0.96875 -0.25 1.5 -0.5625q0.203125 -0.125 0.328125 -0.125q0.15625 0 0.265625 0.125q0.125 0.125 0.125 0.28125q0 0.15625 -0.125 0.28125q-0.3125 0.3125 -1.53125 0.703125q-1.203125 0.375 -2.296875 0.375q-1.4375 0 -2.296875 -0.671875q-0.84375 -0.6875 -0.84375 -1.828125l0 -5.453127l-1.515625 0q-0.28125 0 -0.421875 -0.109375q-0.125 -0.125 -0.125 -0.3125q0 -0.171875 0.125 -0.28125q0.140625 -0.125 0.421875 -0.125l1.515625 0l0 -2.421875q0 -0.296875 0.109375 -0.421875q0.125 -0.125 0.296875 -0.125q0.1875 0 0.296875 0.125q0.125 0.125 0.125 0.421875l0 2.421875zm12.705078 0l0 2.0625q1.609375 -1.4375 2.40625 -1.84375q0.796875 -0.421875 1.46875 -0.421875q0.734375 0 1.359375 0.5q0.625 0.484375 0.625 0.734375q0 0.1875 -0.125 0.3125q-0.109375 0.109375 -0.296875 0.109375q-0.09375 0 -0.171875 -0.03125q-0.0625 -0.03125 -0.25 -0.21875q-0.34375 -0.34375 -0.59375 -0.46875q-0.25 -0.125 -0.5 -0.125q-0.53125 0 -1.296875 0.4375q-0.75 0.421875 -2.625 2.09375l0 4.484377l3.640625 0q0.296875 0 0.421875 0.125q0.125 0.109375 0.125 0.296875q0 0.171875 -0.125 0.296875q-0.125 0.109375 -0.421875 0.109375l-6.4375 0q-0.296875 0 -0.421875 -0.109375q-0.125 -0.109375 -0.125 -0.296875q0 -0.15625 0.125 -0.265625q0.125 -0.125 0.421875 -0.125l1.984375 0l0 -6.828127l-1.515625 0q-0.296875 0 -0.421875 -0.109375q-0.125 -0.125 -0.125 -0.3125q0 -0.171875 0.125 -0.28125q0.125 -0.125 0.421875 -0.125l2.328125 0zm15.345703 8.453127l0 -1.1875q-1.78125 1.515625 -3.8125 1.515625q-1.484375 0 -2.3125 -0.75q-0.828125 -0.75 -0.828125 -1.828125q0 -1.203125 1.09375 -2.078127q1.09375 -0.890625 3.1875 -0.890625q0.578125 0 1.234375 0.078125q0.671875 0.0625 1.4375 0.21875l0 -1.328125q0 -0.671875 -0.625 -1.171875q-0.625 -0.5 -1.875 -0.5q-0.953125 0 -2.6875 0.5625q-0.3125 0.09375 -0.390625 0.09375q-0.15625 0 -0.28125 -0.109375q-0.109375 -0.125 -0.109375 -0.296875q0 -0.171875 0.09375 -0.265625q0.140625 -0.15625 1.109375 -0.40625q1.53125 -0.40625 2.3125 -0.40625q1.546875 0 2.40625 0.765625q0.875 0.765625 0.875 1.734375l0 5.421877l1.09375 0q0.3125 0 0.4375 0.125q0.125 0.109375 0.125 0.296875q0 0.171875 -0.125 0.296875q-0.125 0.109375 -0.4375 0.109375l-1.921875 0zm0 -4.078127q-0.578125 -0.171875 -1.21875 -0.25q-0.640625 -0.078125 -1.359375 -0.078125q-1.78125 0 -2.796875 0.7656269q-0.75 0.578125 -0.75 1.390625q0 0.734375 0.578125 1.25q0.578125 0.5 1.6875 0.5q1.0625 0 1.96875 -0.421875q0.921875 -0.421875 1.890625 -1.359375l0 -1.7968769zm10.048828 -8.59375l0 2.125l-1.203125 0l0 -2.125l1.203125 0zm0.03125 4.21875l0 7.625002l3.2187538 0q0.3125 0 0.4375 0.125q0.125 0.109375 0.125 0.296875q0 0.171875 -0.125 0.296875q-0.125 0.109375 -0.4375 0.109375l-7.265629 0q-0.296875 0 -0.421875 -0.109375q-0.125 -0.125 -0.125 -0.296875q0 -0.1875 0.125 -0.296875q0.125 -0.125 0.421875 -0.125l3.21875 0l0 -6.796877l-2.390625 0q-0.28125 0 -0.421875 -0.109375q-0.125 -0.125 -0.125 -0.296875q0 -0.1875 0.125 -0.296875q0.125 -0.125 0.421875 -0.125l3.21875 0zm8.908207 0l0 1.234375q0.859375 -0.875 1.546875 -1.203125q0.703125 -0.328125 1.578125 -0.328125q0.9375 0 1.703125 0.40625q0.546875 0.28125 0.984375 0.96875q0.453125 0.671875 0.453125 1.390625l0 5.156252l0.6875 0q0.296875 0 0.421875 0.125q0.125 0.109375 0.125 0.296875q0 0.171875 -0.125 0.296875q-0.125 0.109375 -0.421875 0.109375l-2.1875 0q-0.3125 0 -0.4375 -0.109375q-0.125 -0.125 -0.125 -0.296875q0 -0.1875 0.125 -0.296875q0.125 -0.125 0.4375 -0.125l0.6875 0l0 -5.015627q0 -0.875 -0.640625 -1.46875q-0.640625 -0.609375 -1.703125 -0.609375q-0.8125 0 -1.40625 0.328125q-0.59375 0.328125 -1.703125 1.625l0 5.140627l0.9375 0q0.296875 0 0.421875 0.125q0.125 0.109375 0.125 0.296875q0 0.171875 -0.125 0.296875q-0.125 0.109375 -0.421875 0.109375l-2.671875 0q-0.296875 0 -0.421875 -0.109375q-0.125 -0.125 -0.125 -0.296875q0 -0.1875 0.125 -0.296875q0.125 -0.125 0.421875 -0.125l0.921875 0l0 -6.796877l-0.6875 0q-0.296875 0 -0.421875 -0.109375q-0.125 -0.125 -0.125 -0.3125q0 -0.171875 0.125 -0.28125q0.125 -0.125 0.421875 -0.125l1.5 0zm20.111328 13.937502l-10.90625 0q-0.296875 0 -0.421875 -0.125q-0.125 -0.109375 -0.125 -0.296875q0 -0.171875 0.125 -0.296875q0.125 -0.109375 0.421875 -0.109375l10.90625 0q0.3125 0 0.421875 0.109375q0.125 0.125 0.125 0.296875q0 0.1875 -0.125 0.296875q-0.109375 0.125 -0.421875 0.125zm3.4550781 -13.937502l0 1.484375q0.734375 -0.890625 1.578125 -1.328125q0.84375 -0.453125 1.984375 -0.453125q1.203125 0 2.234375 0.5625q1.03125 0.5625 1.578125 1.578125q0.5625 1.015625 0.5625 2.125q0 1.7656269 -1.265625 3.031252q-1.25 1.25 -3.109375 1.25q-2.1875 0 -3.5625 -1.796875l0 4.953125l2.0 0q0.296875 0 0.421875 0.109375q0.125 0.109375 0.125 0.296875q0 0.171875 -0.125 0.28125q-0.125 0.125 -0.421875 0.125l-3.921875 0q-0.296875 0 -0.421875 -0.109375q-0.125 -0.109375 -0.125 -0.296875q0 -0.1875 0.125 -0.296875q0.125 -0.109375 0.421875 -0.109375l1.109375 0l0 -10.578127l-1.109375 0q-0.296875 0 -0.421875 -0.109375q-0.125 -0.125 -0.125 -0.3125q0 -0.171875 0.125 -0.28125q0.125 -0.125 0.421875 -0.125l1.921875 0zm7.109375 3.96875q0 -1.421875 -1.03125 -2.421875q-1.03125 -1.015625 -2.515625 -1.015625q-1.484375 0 -2.53125 1.015625q-1.03125 1.015625 -1.03125 2.421875q0 1.4218769 1.03125 2.437502q1.046875 1.015625 2.53125 1.015625q1.484375 0 2.515625 -1.015625q1.03125 -1.015625 1.03125 -2.437502zm12.580078 0.28125q0 1.8750019 -1.34375 3.203127q-1.34375 1.328125 -3.25 1.328125q-1.90625 0 -3.25 -1.328125q-1.328125 -1.34375 -1.328125 -3.203127q0 -1.875 1.328125 -3.203125q1.34375 -1.34375 3.25 -1.34375q1.90625 0 3.25 1.328125q1.34375 1.328125 1.34375 3.21875zm-0.84375 0q0 -1.546875 -1.09375 -2.625q-1.09375 -1.09375 -2.65625 -1.09375q-1.5625 0 -2.671875 1.09375q-1.09375 1.078125 -1.09375 2.625q0 1.5156269 1.09375 2.609377q1.109375 1.09375 2.671875 1.09375q1.5625 0 2.65625 -1.078125q1.09375 -1.09375 1.09375 -2.625002zm8.673828 -8.046875l0 11.421877l3.21875 0q0.296875 0 0.421875 0.125q0.140625 0.109375 0.140625 0.296875q0 0.171875 -0.140625 0.296875q-0.125 0.109375 -0.421875 0.109375l-7.265625 0q-0.296875 0 -0.421875 -0.109375q-0.125 -0.125 -0.125 -0.296875q0 -0.1875 0.125 -0.296875q0.125 -0.125 0.421875 -0.125l3.21875 0l0 -10.593752l-2.359375 0q-0.296875 0 -0.4375 -0.109375q-0.125 -0.125 -0.125 -0.3125q0 -0.171875 0.125 -0.28125q0.140625 -0.125 0.4375 -0.125l3.1875 0zm11.986313 -0.421875l0 2.125l-1.203125 0l0 -2.125l1.203125 0zm0.03125 4.21875l0 7.625002l3.21875 0q0.3125 0 0.4375 0.125q0.125 0.109375 0.125 0.296875q0 0.171875 -0.125 0.296875q-0.125 0.109375 -0.4375 0.109375l-7.2656097 0q-0.296875 0 -0.421875 -0.109375q-0.125 -0.125 -0.125 -0.296875q0 -0.1875 0.125 -0.296875q0.125 -0.125 0.421875 -0.125l3.2187347 0l0 -6.796877l-2.3906097 0q-0.28125 0 -0.421875 -0.109375q-0.125 -0.125 -0.125 -0.296875q0 -0.1875 0.125 -0.296875q0.125 -0.125 0.421875 -0.125l3.2187347 0zm14.986328 0.828125l0 -0.28125q0 -0.296875 0.109375 -0.421875q0.125 -0.125 0.296875 -0.125q0.1875 0 0.296875 0.125q0.125 0.125 0.125 0.421875l0 1.859375q0 0.296875 -0.125 0.4375q-0.109375 0.125 -0.296875 0.125q-0.15625 0 -0.28125 -0.109375q-0.109375 -0.125 -0.125 -0.390625q-0.0625 -0.6875 -0.921875 -1.3125q-0.84375 -0.625 -2.28125 -0.625q-1.828125 0 -2.78125 1.140625q-0.953125 1.140625 -0.953125 2.625q0 1.5937519 1.046875 2.625002q1.046875 1.03125 2.703125 1.03125q0.96875 0 1.953125 -0.34375q1.0 -0.359375 1.796875 -1.140625q0.203125 -0.1875 0.359375 -0.1875q0.171875 0 0.28125 0.109375q0.109375 0.109375 0.109375 0.28125q0 0.40625 -0.984375 1.0625q-1.59375 1.046875 -3.546875 1.046875q-1.984375 0 -3.265625 -1.265625q-1.265625 -1.265625 -1.265625 -3.218752q0 -1.984375 1.296875 -3.28125q1.3125 -1.3125 3.296875 -1.3125q1.875 0 3.15625 1.125zm8.642578 7.625002l-3.8125 -7.625002l-0.25 0q-0.296875 0 -0.421875 -0.109375q-0.125 -0.125 -0.125 -0.296875q0 -0.140625 0.0625 -0.234375q0.0625 -0.109375 0.15625 -0.140625q0.109375 -0.046875 0.328125 -0.046875l2.25 0q0.296875 0 0.421875 0.125q0.125 0.109375 0.125 0.296875q0 0.171875 -0.125 0.296875q-0.125 0.109375 -0.421875 0.109375l-1.109375 0l3.359375 6.718752l3.296875 -6.718752l-1.109375 0q-0.28125 0 -0.421875 -0.109375q-0.125 -0.125 -0.125 -0.3125q0 -0.171875 0.125 -0.28125q0.140625 -0.125 0.421875 -0.125l2.234375 0q0.3125 0 0.4375 0.125q0.125 0.109375 0.125 0.296875q0 0.125 -0.078125 0.234375q-0.078125 0.09375 -0.171875 0.140625q-0.09375 0.03125 -0.546875 0.03125l-5.203125 10.578127l1.28125 0q0.296875 0 0.421875 0.109375q0.125 0.109375 0.125 0.296875q0 0.171875 -0.125 0.28125q-0.125 0.125 -0.421875 0.125l-4.71875 0q-0.296875 0 -0.421875 -0.109375q-0.125 -0.109375 -0.125 -0.296875q0 -0.1875 0.125 -0.296875q0.125 -0.109375 0.421875 -0.109375l2.5625 0l1.453125 -2.953125zm11.767578 -2.359375l0.359375 0q0.546875 0 0.9375 0.390625q0.390625 0.390625 0.390625 0.9375q0 0.5625 -0.40625 0.953125q-0.390625 0.375 -0.921875 0.375l-0.359375 0q-0.546875 0 -0.9375 -0.390625q-0.390625 -0.390625 -0.390625 -0.9375q0 -0.5625 0.390625 -0.9375q0.40625 -0.390625 0.9375 -0.390625zm9.080078 -6.093752l0 1.484375q0.734375 -0.890625 1.578125 -1.328125q0.84375 -0.453125 1.984375 -0.453125q1.203125 0 2.234375 0.5625q1.03125 0.5625 1.578125 1.578125q0.5625 1.015625 0.5625 2.125q0 1.7656269 -1.265625 3.031252q-1.25 1.25 -3.109375 1.25q-2.1875 0 -3.5625 -1.796875l0 4.953125l2.0 0q0.296875 0 0.421875 0.109375q0.125 0.109375 0.125 0.296875q0 0.171875 -0.125 0.28125q-0.125 0.125 -0.421875 0.125l-3.921875 0q-0.296875 0 -0.421875 -0.109375q-0.125 -0.109375 -0.125 -0.296875q0 -0.1875 0.125 -0.296875q0.125 -0.109375 0.421875 -0.109375l1.109375 0l0 -10.578127l-1.109375 0q-0.296875 0 -0.421875 -0.109375q-0.125 -0.125 -0.125 -0.3125q0 -0.171875 0.125 -0.28125q0.125 -0.125 0.421875 -0.125l1.921875 0zm7.109375 3.96875q0 -1.421875 -1.03125 -2.421875q-1.03125 -1.015625 -2.515625 -1.015625q-1.484375 0 -2.53125 1.015625q-1.03125 1.015625 -1.03125 2.421875q0 1.4218769 1.03125 2.437502q1.046875 1.015625 2.53125 1.015625q1.484375 0 2.515625 -1.015625q1.03125 -1.015625 1.03125 -2.437502zm8.048828 4.484377l-3.8125 -7.625002l-0.25 0q-0.296875 0 -0.421875 -0.109375q-0.125 -0.125 -0.125 -0.296875q0 -0.140625 0.0625 -0.234375q0.0625 -0.109375 0.15625 -0.140625q0.109375 -0.046875 0.328125 -0.046875l2.25 0q0.296875 0 0.421875 0.125q0.125 0.109375 0.125 0.296875q0 0.171875 -0.125 0.296875q-0.125 0.109375 -0.421875 0.109375l-1.109375 0l3.359375 6.718752l3.296875 -6.718752l-1.109375 0q-0.28125 0 -0.421875 -0.109375q-0.125 -0.125 -0.125 -0.3125q0 -0.171875 0.125 -0.28125q0.140625 -0.125 0.421875 -0.125l2.234375 0q0.3125 0 0.4375 0.125q0.125 0.109375 0.125 0.296875q0 0.125 -0.078125 0.234375q-0.078125 0.09375 -0.171875 0.140625q-0.09375 0.03125 -0.546875 0.03125l-5.203125 10.578127l1.28125 0q0.296875 0 0.421875 0.109375q0.125 0.109375 0.125 0.296875q0 0.171875 -0.125 0.28125q-0.125 0.125 -0.421875 0.125l-4.71875 0q-0.296875 0 -0.421875 -0.109375q-0.125 -0.109375 -0.125 -0.296875q0 -0.1875 0.125 -0.296875q0.125 -0.109375 0.421875 -0.109375l2.5625 0l1.453125 -2.953125z" fill-rule="nonzero"/><path fill="#f4cccc" d="m450.8294 147.95815l0 0c0 -3.6558838 2.9636536 -6.619568 6.6195374 -6.619568l203.70578 0c1.7556152 0 3.439331 0.6974182 4.680725 1.9388275c1.241394 1.2414093 1.9388428 2.9251251 1.9388428 4.6807404l0 26.477417c0 3.6558838 -2.963684 6.6195526 -6.619568 6.6195526l-203.70578 0l0 0c-3.6558838 0 -6.6195374 -2.9636688 -6.6195374 -6.6195526z" fill-rule="evenodd"/><path stroke="#000000" stroke-width="2.0" stroke-linejoin="round" stroke-linecap="butt" d="m450.8294 147.95815l0 0c0 -3.6558838 2.9636536 -6.619568 6.6195374 -6.619568l203.70578 0c1.7556152 0 3.439331 0.6974182 4.680725 1.9388275c1.241394 1.2414093 1.9388428 2.9251251 1.9388428 4.6807404l0 26.477417c0 3.6558838 -2.963684 6.6195526 -6.619568 6.6195526l-203.70578 0l0 0c-3.6558838 0 -6.6195374 -2.9636688 -6.6195374 -6.6195526z" fill-rule="evenodd"/><path fill="#000000" d="m526.1634 164.44247l-8.78125 0q0.21875 1.671875 1.390625 2.703125q1.1875 1.015625 2.90625 1.015625q0.96875 0 2.015625 -0.3125q1.0625 -0.328125 1.734375 -0.859375q0.1875 -0.140625 0.34375 -0.140625q0.15625 0 0.28125 0.125q0.125 0.125 0.125 0.296875q0 0.171875 -0.171875 0.34375q-0.484375 0.515625 -1.75 0.96875q-1.25 0.4375 -2.578125 0.4375q-2.203125 0 -3.6875 -1.453125q-1.484375 -1.453125 -1.484375 -3.515625q0 -1.875 1.390625 -3.21875q1.390625 -1.34375 3.4375 -1.34375q2.109375 0 3.46875 1.390625q1.375 1.375 1.359375 3.5625zm-0.875 -0.875q-0.265625 -1.421875 -1.359375 -2.3125q-1.078125 -0.890625 -2.59375 -0.890625q-1.5 0 -2.59375 0.890625q-1.078125 0.875 -1.359375 2.3125l7.90625 0zm5.570801 -3.765625l0 1.5625q0.765625 -0.9375 1.640625 -1.40625q0.890625 -0.46875 2.078125 -0.46875q1.28125 0 2.359375 0.59375q1.078125 0.59375 1.65625 1.65625q0.59375 1.0625 0.59375 2.234375q0 1.859375 -1.328125 3.171875q-1.328125 1.3125 -3.265625 1.3125q-2.3125 0 -3.734375 -1.875l0 5.1875l2.078125 0q0.3125 0 0.4375 0.109375q0.140625 0.125 0.140625 0.328125q0 0.1875 -0.140625 0.296875q-0.125 0.125 -0.4375 0.125l-4.109375 0q-0.296875 0 -0.4375 -0.125q-0.125 -0.109375 -0.125 -0.296875q0 -0.203125 0.125 -0.328125q0.140625 -0.109375 0.4375 -0.109375l1.15625 0l0 -11.109375l-1.15625 0q-0.296875 0 -0.4375 -0.109375q-0.125 -0.125 -0.125 -0.328125q0 -0.1875 0.125 -0.296875q0.140625 -0.125 0.4375 -0.125l2.03125 0zm7.453125 4.171875q0 -1.484375 -1.078125 -2.546875q-1.078125 -1.0625 -2.640625 -1.0625q-1.5625 0 -2.65625 1.0625q-1.078125 1.0625 -1.078125 2.546875q0 1.484375 1.078125 2.546875q1.09375 1.0625 2.65625 1.0625q1.546875 0 2.625 -1.046875q1.09375 -1.0625 1.09375 -2.5625zm7.352051 -4.171875l0 2.171875q1.6875 -1.515625 2.515625 -1.953125q0.84375 -0.4375 1.546875 -0.4375q0.765625 0 1.421875 0.515625q0.671875 0.515625 0.671875 0.78125q0 0.203125 -0.125 0.328125q-0.125 0.125 -0.328125 0.125q-0.09375 0 -0.171875 -0.03125q-0.078125 -0.03125 -0.265625 -0.234375q-0.359375 -0.359375 -0.625 -0.484375q-0.265625 -0.140625 -0.53125 -0.140625q-0.5625 0 -1.359375 0.453125q-0.78125 0.453125 -2.75 2.203125l0 4.71875l3.8125 0q0.328125 0 0.453125 0.125q0.140625 0.109375 0.140625 0.296875q0 0.1875 -0.140625 0.3125q-0.125 0.125 -0.453125 0.125l-6.75 0q-0.3125 0 -0.453125 -0.109375q-0.125 -0.125 -0.125 -0.3125q0 -0.171875 0.125 -0.28125q0.140625 -0.125 0.453125 -0.125l2.078125 0l0 -7.1875l-1.59375 0q-0.296875 0 -0.4375 -0.109375q-0.125 -0.125 -0.125 -0.328125q0 -0.1875 0.125 -0.296875q0.125 -0.125 0.4375 -0.125l2.453125 0zm18.4458 4.453125q0 1.96875 -1.40625 3.375q-1.40625 1.390625 -3.390625 1.390625q-2.015625 0 -3.421875 -1.40625q-1.40625 -1.40625 -1.40625 -3.359375q0 -1.96875 1.40625 -3.359375q1.40625 -1.40625 3.421875 -1.40625q1.984375 0 3.390625 1.390625q1.40625 1.390625 1.40625 3.375zm-0.859375 0q0 -1.625 -1.15625 -2.75q-1.15625 -1.140625 -2.796875 -1.140625q-1.640625 0 -2.796875 1.140625q-1.15625 1.140625 -1.15625 2.75q0 1.609375 1.15625 2.765625q1.15625 1.140625 2.796875 1.140625q1.640625 0 2.796875 -1.140625q1.15625 -1.15625 1.15625 -2.765625zm9.414551 4.421875l-1.46875 0l-3.53125 -8.015625l-0.890625 0q-0.296875 0 -0.4375 -0.109375q-0.125 -0.125 -0.125 -0.328125q0 -0.1875 0.125 -0.296875q0.140625 -0.125 0.4375 -0.125l3.234375 0q0.3125 0 0.4375 0.125q0.140625 0.109375 0.140625 0.3125q0 0.1875 -0.140625 0.3125q-0.125 0.109375 -0.4375 0.109375l-1.421875 0l3.15625 7.15625l0.375 0l3.109375 -7.15625l-1.4375 0q-0.3125 0 -0.453125 -0.109375q-0.125 -0.125 -0.125 -0.328125q0 -0.1875 0.125 -0.296875q0.140625 -0.125 0.453125 -0.125l3.234375 0q0.3125 0 0.4375 0.125q0.140625 0.109375 0.140625 0.3125q0 0.1875 -0.140625 0.3125q-0.125 0.109375 -0.4375 0.109375l-0.875 0l-3.484375 8.015625zm16.5083 -4.234375l-8.78125 0q0.21875 1.671875 1.390625 2.703125q1.1875 1.015625 2.90625 1.015625q0.96875 0 2.015625 -0.3125q1.0625 -0.328125 1.734375 -0.859375q0.1875 -0.140625 0.34375 -0.140625q0.15625 0 0.28125 0.125q0.125 0.125 0.125 0.296875q0 0.171875 -0.171875 0.34375q-0.484375 0.515625 -1.75 0.96875q-1.25 0.4375 -2.578125 0.4375q-2.203125 0 -3.6875 -1.453125q-1.484375 -1.453125 -1.484375 -3.515625q0 -1.875 1.390625 -3.21875q1.390625 -1.34375 3.4375 -1.34375q2.109375 0 3.46875 1.390625q1.375 1.375 1.359375 3.5625zm-0.875 -0.875q-0.265625 -1.421875 -1.359375 -2.3125q-1.078125 -0.890625 -2.59375 -0.890625q-1.5 0 -2.59375 0.890625q-1.078125 0.875 -1.359375 2.3125l7.90625 0zm7.773926 -3.765625l0 2.171875q1.6875 -1.515625 2.515625 -1.953125q0.84375 -0.4375 1.546875 -0.4375q0.765625 0 1.421875 0.515625q0.671875 0.515625 0.671875 0.78125q0 0.203125 -0.125 0.328125q-0.125 0.125 -0.328125 0.125q-0.09375 0 -0.171875 -0.03125q-0.078125 -0.03125 -0.265625 -0.234375q-0.359375 -0.359375 -0.625 -0.484375q-0.265625 -0.140625 -0.53125 -0.140625q-0.5625 0 -1.359375 0.453125q-0.78125 0.453125 -2.75 2.203125l0 4.71875l3.8125 0q0.328125 0 0.453125 0.125q0.140625 0.109375 0.140625 0.296875q0 0.1875 -0.140625 0.3125q-0.125 0.125 -0.453125 0.125l-6.75 0q-0.3125 0 -0.453125 -0.109375q-0.125 -0.125 -0.125 -0.3125q0 -0.171875 0.125 -0.28125q0.140625 -0.125 0.453125 -0.125l2.078125 0l0 -7.1875l-1.59375 0q-0.296875 0 -0.4375 -0.109375q-0.125 -0.125 -0.125 -0.328125q0 -0.1875 0.125 -0.296875q0.125 -0.125 0.4375 -0.125l2.453125 0z" fill-rule="nonzero"/><path fill="#d9ead3" d="m449.65353 15.380699l0 0c0 -3.655879 2.963684 -6.6195555 6.619568 -6.6195555l203.70578 0c1.7556152 0 3.439331 0.69741535 4.680725 1.9388227c1.241394 1.2414074 1.9388428 2.9251175 1.9388428 4.6807327l0 26.477425c0 3.65588 -2.963684 6.6195564 -6.619568 6.6195564l-203.70578 0l0 0c-3.6558838 0 -6.619568 -2.9636765 -6.619568 -6.6195564z" fill-rule="evenodd"/><path stroke="#000000" stroke-width="2.0" stroke-linejoin="round" stroke-linecap="butt" d="m449.65353 15.380699l0 0c0 -3.655879 2.963684 -6.6195555 6.619568 -6.6195555l203.70578 0c1.7556152 0 3.439331 0.69741535 4.680725 1.9388227c1.241394 1.2414074 1.9388428 2.9251175 1.9388428 4.6807327l0 26.477425c0 3.65588 -2.963684 6.6195564 -6.619568 6.6195564l-203.70578 0l0 0c-3.6558838 0 -6.619568 -2.9636765 -6.619568 -6.6195564z" fill-rule="evenodd"/><path fill="#000000" d="m504.31885 28.802536l0 -1.578125l2.015625 0q0.3125 0 0.4375 0.125q0.140625 0.109375 0.140625 0.3125q0 0.1875 -0.140625 0.3125q-0.125 0.109375 -0.4375 0.109375l-1.15625 0l0 8.609375q0 0.859375 -0.375 1.546875q-0.25 0.4375 -0.828125 0.921875q-0.5625 0.484375 -1.03125 0.6875q-0.46875 0.203125 -1.265625 0.203125l-2.4375 0q-0.3125 0 -0.453125 -0.125q-0.125 -0.109375 -0.125 -0.296875q0 -0.203125 0.125 -0.328125q0.140625 -0.109375 0.453125 -0.109375l2.46875 0q0.765625 0 1.375 -0.390625q0.609375 -0.390625 1.0 -1.140625q0.234375 -0.421875 0.234375 -1.09375l0 -2.578125q-1.390625 1.890625 -3.578125 1.890625q-1.765625 0 -3.0625 -1.3125q-1.28125 -1.3125 -1.28125 -3.171875q0 -1.859375 1.28125 -3.171875q1.296875 -1.3125 3.0625 -1.3125q2.1875 0 3.578125 1.890625zm0 2.59375q0 -1.515625 -1.046875 -2.5625q-1.046875 -1.046875 -2.484375 -1.046875q-1.453125 0 -2.484375 1.046875q-1.03125 1.046875 -1.03125 2.5625q0 1.515625 1.03125 2.5625q1.03125 1.046875 2.484375 1.046875q1.4375 0 2.484375 -1.046875q1.046875 -1.046875 1.046875 -2.5625zm12.180176 4.703125l0 -1.234375q-1.875 1.578125 -4.015625 1.578125q-1.546875 0 -2.421875 -0.78125q-0.859375 -0.796875 -0.859375 -1.9375q0 -1.25 1.140625 -2.171875q1.15625 -0.9375 3.359375 -0.9375q0.59375 0 1.28125 0.078125q0.703125 0.078125 1.515625 0.234375l0 -1.390625q0 -0.703125 -0.65625 -1.21875q-0.65625 -0.53125 -1.96875 -0.53125q-1.015625 0 -2.828125 0.578125q-0.328125 0.109375 -0.421875 0.109375q-0.15625 0 -0.28125 -0.125q-0.109375 -0.125 -0.109375 -0.3125q0 -0.171875 0.09375 -0.28125q0.15625 -0.140625 1.171875 -0.40625q1.59375 -0.4375 2.40625 -0.4375q1.640625 0 2.546875 0.8125q0.921875 0.796875 0.921875 1.8125l0 5.703125l1.140625 0q0.3125 0 0.4375 0.125q0.140625 0.109375 0.140625 0.296875q0 0.1875 -0.140625 0.3125q-0.125 0.125 -0.4375 0.125l-2.015625 0zm0 -4.28125q-0.609375 -0.171875 -1.296875 -0.25q-0.671875 -0.09375 -1.40625 -0.09375q-1.890625 0 -2.9375 0.8125q-0.796875 0.609375 -0.796875 1.4375q0 0.78125 0.609375 1.328125q0.609375 0.53125 1.78125 0.53125q1.109375 0 2.0625 -0.453125q0.96875 -0.453125 1.984375 -1.421875l0 -1.890625zm10.555176 -9.015625l0 2.21875l-1.28125 0l0 -2.21875l1.28125 0zm0.015625 4.421875l0 8.015625l3.390625 0q0.3125 0 0.4375 0.125q0.140625 0.109375 0.140625 0.296875q0 0.1875 -0.140625 0.3125q-0.125 0.125 -0.4375 0.125l-7.625 0q-0.3125 0 -0.453125 -0.125q-0.125 -0.125 -0.125 -0.3125q0 -0.1875 0.125 -0.296875q0.140625 -0.125 0.453125 -0.125l3.375 0l0 -7.15625l-2.5 0q-0.3125 0 -0.453125 -0.109375q-0.140625 -0.125 -0.140625 -0.3125q0 -0.203125 0.125 -0.3125q0.140625 -0.125 0.46875 -0.125l3.359375 0zm9.367676 0l0 1.296875q0.90625 -0.90625 1.625 -1.25q0.734375 -0.359375 1.640625 -0.359375q0.984375 0 1.796875 0.421875q0.578125 0.3125 1.046875 1.03125q0.46875 0.703125 0.46875 1.453125l0 5.421875l0.71875 0q0.3125 0 0.4375 0.125q0.140625 0.109375 0.140625 0.296875q0 0.1875 -0.140625 0.3125q-0.125 0.125 -0.4375 0.125l-2.296875 0q-0.328125 0 -0.46875 -0.125q-0.125 -0.125 -0.125 -0.3125q0 -0.1875 0.125 -0.296875q0.140625 -0.125 0.46875 -0.125l0.71875 0l0 -5.28125q0 -0.921875 -0.671875 -1.546875q-0.671875 -0.625 -1.78125 -0.625q-0.859375 0 -1.484375 0.34375q-0.625 0.34375 -1.78125 1.703125l0 5.40625l0.96875 0q0.3125 0 0.4375 0.125q0.140625 0.109375 0.140625 0.296875q0 0.1875 -0.140625 0.3125q-0.125 0.125 -0.4375 0.125l-2.796875 0q-0.3125 0 -0.453125 -0.125q-0.125 -0.125 -0.125 -0.3125q0 -0.1875 0.125 -0.296875q0.140625 -0.125 0.453125 -0.125l0.96875 0l0 -7.15625l-0.734375 0q-0.296875 0 -0.4375 -0.109375q-0.125 -0.125 -0.125 -0.328125q0 -0.1875 0.125 -0.296875q0.140625 -0.125 0.4375 -0.125l1.59375 0zm21.117676 14.625l-11.453125 0q-0.3125 0 -0.453125 -0.125q-0.125 -0.109375 -0.125 -0.296875q0 -0.203125 0.125 -0.328125q0.140625 -0.109375 0.453125 -0.109375l11.453125 0q0.3125 0 0.4375 0.109375q0.140625 0.125 0.140625 0.328125q0 0.1875 -0.140625 0.296875q-0.125 0.125 -0.4375 0.125zm7.461426 -10.390625l3.953125 3.78125q0.390625 0 0.484375 0.03125q0.109375 0.03125 0.1875 0.15625q0.078125 0.109375 0.078125 0.234375q0 0.1875 -0.140625 0.3125q-0.125 0.125 -0.453125 0.125l-2.765625 0q-0.3125 0 -0.453125 -0.125q-0.125 -0.125 -0.125 -0.3125q0 -0.1875 0.125 -0.296875q0.140625 -0.125 0.453125 -0.125l1.421875 0l-3.34375 -3.21875l-3.34375 3.21875l1.4375 0q0.3125 0 0.4375 0.125q0.140625 0.109375 0.140625 0.296875q0 0.1875 -0.140625 0.3125q-0.125 0.125 -0.4375 0.125l-2.796875 0q-0.3125 0 -0.453125 -0.125q-0.125 -0.125 -0.125 -0.3125q0 -0.125 0.078125 -0.234375q0.078125 -0.125 0.171875 -0.15625q0.109375 -0.03125 0.5 -0.03125l3.9375 -3.78125l-3.5 -3.375q-0.375 0 -0.46875 -0.03125q-0.09375 -0.046875 -0.171875 -0.15625q-0.078125 -0.109375 -0.078125 -0.25q0 -0.1875 0.125 -0.296875q0.140625 -0.125 0.453125 -0.125l2.359375 0q0.3125 0 0.4375 0.125q0.125 0.109375 0.125 0.3125q0 0.1875 -0.125 0.3125q-0.125 0.109375 -0.4375 0.109375l-1.03125 0l2.90625 2.8125l2.921875 -2.8125l-1.03125 0q-0.3125 0 -0.453125 -0.109375q-0.125 -0.125 -0.125 -0.328125q0 -0.1875 0.125 -0.296875q0.140625 -0.125 0.453125 -0.125l2.34375 0q0.3125 0 0.4375 0.125q0.140625 0.109375 0.140625 0.3125q0 0.125 -0.078125 0.234375q-0.078125 0.109375 -0.171875 0.15625q-0.09375 0.03125 -0.46875 0.03125l-3.515625 3.375zm8.773926 -4.234375l0 1.5625q0.765625 -0.9375 1.640625 -1.40625q0.890625 -0.46875 2.078125 -0.46875q1.28125 0 2.359375 0.59375q1.078125 0.59375 1.65625 1.65625q0.59375 1.0625 0.59375 2.234375q0 1.859375 -1.328125 3.171875q-1.328125 1.3125 -3.265625 1.3125q-2.3125 0 -3.734375 -1.875l0 5.1875l2.078125 0q0.3125 0 0.4375 0.109375q0.140625 0.125 0.140625 0.328125q0 0.1875 -0.140625 0.296875q-0.125 0.125 -0.4375 0.125l-4.109375 0q-0.296875 0 -0.4375 -0.125q-0.125 -0.109375 -0.125 -0.296875q0 -0.203125 0.125 -0.328125q0.140625 -0.109375 0.4375 -0.109375l1.15625 0l0 -11.109375l-1.15625 0q-0.296875 0 -0.4375 -0.109375q-0.125 -0.125 -0.125 -0.328125q0 -0.1875 0.125 -0.296875q0.140625 -0.125 0.4375 -0.125l2.03125 0zm7.453125 4.171875q0 -1.484375 -1.078125 -2.546875q-1.078125 -1.0625 -2.640625 -1.0625q-1.5625 0 -2.65625 1.0625q-1.078125 1.0625 -1.078125 2.546875q0 1.484375 1.078125 2.546875q1.09375 1.0625 2.65625 1.0625q1.546875 0 2.625 -1.046875q1.09375 -1.0625 1.09375 -2.5625zm8.211426 2.234375l0.359375 0q0.578125 0 0.984375 0.40625q0.421875 0.40625 0.421875 0.96875q0 0.59375 -0.421875 1.0q-0.40625 0.40625 -0.984375 0.40625l-0.359375 0q-0.578125 0 -0.984375 -0.40625q-0.40625 -0.40625 -0.40625 -0.984375q0 -0.59375 0.40625 -0.984375q0.421875 -0.40625 0.984375 -0.40625zm9.539551 -6.40625l0 1.5625q0.765625 -0.9375 1.640625 -1.40625q0.890625 -0.46875 2.078125 -0.46875q1.28125 0 2.359375 0.59375q1.078125 0.59375 1.65625 1.65625q0.59375 1.0625 0.59375 2.234375q0 1.859375 -1.328125 3.171875q-1.328125 1.3125 -3.265625 1.3125q-2.3125 0 -3.734375 -1.875l0 5.1875l2.078125 0q0.3125 0 0.4375 0.109375q0.140625 0.125 0.140625 0.328125q0 0.1875 -0.140625 0.296875q-0.125 0.125 -0.4375 0.125l-4.109375 0q-0.296875 0 -0.4375 -0.125q-0.125 -0.109375 -0.125 -0.296875q0 -0.203125 0.125 -0.328125q0.140625 -0.109375 0.4375 -0.109375l1.15625 0l0 -11.109375l-1.15625 0q-0.296875 0 -0.4375 -0.109375q-0.125 -0.125 -0.125 -0.328125q0 -0.1875 0.125 -0.296875q0.140625 -0.125 0.4375 -0.125l2.03125 0zm7.453125 4.171875q0 -1.484375 -1.078125 -2.546875q-1.078125 -1.0625 -2.640625 -1.0625q-1.5625 0 -2.65625 1.0625q-1.078125 1.0625 -1.078125 2.546875q0 1.484375 1.078125 2.546875q1.09375 1.0625 2.65625 1.0625q1.546875 0 2.625 -1.046875q1.09375 -1.0625 1.09375 -2.5625zm8.445801 4.703125l-4.0 -8.015625l-0.25 0q-0.3125 0 -0.453125 -0.109375q-0.125 -0.125 -0.125 -0.3125q0 -0.140625 0.0625 -0.234375q0.0625 -0.109375 0.171875 -0.15625q0.109375 -0.046875 0.34375 -0.046875l2.34375 0q0.3125 0 0.4375 0.125q0.140625 0.109375 0.140625 0.3125q0 0.1875 -0.140625 0.3125q-0.125 0.109375 -0.4375 0.109375l-1.15625 0l3.515625 7.078125l3.46875 -7.078125l-1.15625 0q-0.3125 0 -0.453125 -0.109375q-0.125 -0.125 -0.125 -0.328125q0 -0.1875 0.125 -0.296875q0.140625 -0.125 0.453125 -0.125l2.34375 0q0.328125 0 0.453125 0.125q0.140625 0.109375 0.140625 0.3125q0 0.125 -0.09375 0.25q-0.078125 0.109375 -0.1875 0.140625q-0.09375 0.03125 -0.5625 0.03125l-5.453125 11.109375l1.34375 0q0.296875 0 0.4375 0.109375q0.140625 0.125 0.140625 0.328125q0 0.1875 -0.140625 0.296875q-0.140625 0.125 -0.4375 0.125l-4.96875 0q-0.3125 0 -0.453125 -0.125q-0.125 -0.109375 -0.125 -0.296875q0 -0.203125 0.125 -0.328125q0.140625 -0.109375 0.453125 -0.109375l2.703125 0l1.515625 -3.09375z" fill-rule="nonzero"/><path fill="#000000" fill-opacity="0.0" d="m511.9535 141.40955c-1.4423523 -8.483154 -8.814331 -35.168 -8.654083 -50.898987c0.16027832 -15.730988 8.013031 -36.239113 9.615631 -43.48694" fill-rule="evenodd"/><path stroke="#434343" stroke-width="2.0" stroke-linejoin="round" stroke-linecap="butt" d="m511.9535 141.40955c-1.4423218 -8.483154 -8.814331 -35.16799 -8.654083 -50.898987c0.08013916 -7.865494 2.083374 -16.92527 4.2669373 -24.924652c0.54589844 -1.9998474 1.1030579 -3.9334183 1.6442566 -5.7654877l0.37661743 -1.2674599" fill-rule="evenodd"/><path fill="#434343" stroke="#434343" stroke-width="2.0" stroke-linecap="butt" d="m512.7611 59.46907l-0.6569214 -9.636322l-5.690857 7.804104z" fill-rule="evenodd"/><path fill="#000000" fill-opacity="0.0" d="m622.63464 47.02362c1.8688965 6.58881 10.828674 23.801857 11.213501 39.532852c0.38476562 15.730988 -7.4207153 45.71089 -8.904846 54.853073" fill-rule="evenodd"/><path stroke="#434343" stroke-width="2.0" stroke-linejoin="round" stroke-linecap="butt" d="m622.63464 47.02362c1.8688965 6.58881 10.828674 23.801857 11.213501 39.532852c0.19238281 7.865486 -1.6627808 19.293213 -3.751587 29.897339c-0.5222168 2.6510315 -1.059021 5.2505875 -1.5820312 7.7301407c-0.26153564 1.2397766 -0.5195923 2.4495468 -0.77075195 3.620758l-0.39733887 1.8479233" fill-rule="evenodd"/><path fill="#434343" stroke="#434343" stroke-width="2.0" stroke-linecap="butt" d="m624.10986 128.99109l1.4189453 9.553879l5.054138 -8.230804z" fill-rule="evenodd"/><path fill="#000000" fill-opacity="0.0" d="m312.8622 81.46063l242.07877 0l0 45.259842l-242.07877 0z" fill-rule="evenodd"/><path fill="#000000" d="m331.00284 102.62813q0 -0.296875 0.125 -0.421875q0.125 -0.140625 0.3125 -0.140625q0.1875 0 0.3125 0.140625q0.125 0.125 0.125 0.4375l0 1.484375q0 0.296875 -0.125 0.4375q-0.125 0.125 -0.3125 0.125q-0.171875 0 -0.296875 -0.109375q-0.109375 -0.109375 -0.140625 -0.375q-0.0625 -0.609375 -0.625 -1.0q-0.84375 -0.578125 -2.234375 -0.578125q-1.4375 0 -2.234375 0.578125q-0.609375 0.4375 -0.609375 0.984375q0 0.625 0.71875 1.03125q0.484375 0.28125 1.859375 0.4375q1.796875 0.1875 2.5 0.4375q0.984375 0.359375 1.46875 1.0q0.5 0.640625 0.5 1.375q0 1.09375 -1.0625 1.953125q-1.046875 0.859375 -3.09375 0.859375q-2.046875 0 -3.34375 -1.046875q0 0.359375 -0.046875 0.46875q-0.03125 0.09375 -0.140625 0.171875q-0.109375 0.0625 -0.25 0.0625q-0.171875 0 -0.296875 -0.125q-0.125 -0.140625 -0.125 -0.453125l0 -1.765625q0 -0.3125 0.109375 -0.4375q0.125 -0.140625 0.3125 -0.140625q0.1875 0 0.3125 0.125q0.140625 0.125 0.140625 0.34375q0 0.46875 0.234375 0.796875q0.359375 0.484375 1.140625 0.8125q0.78125 0.328125 1.921875 0.328125q1.6875 0 2.5 -0.625q0.828125 -0.640625 0.828125 -1.328125q0 -0.796875 -0.84375 -1.28125q-0.828125 -0.484375 -2.4375 -0.640625q-1.609375 -0.171875 -2.3125 -0.4375q-0.6875 -0.265625 -1.078125 -0.796875q-0.390625 -0.53125 -0.390625 -1.15625q0 -1.109375 1.078125 -1.75q1.09375 -0.65625 2.609375 -0.65625q1.78125 0 2.890625 0.875zm7.992676 -0.5625l4.671875 0q0.3125 0 0.4375 0.125q0.140625 0.109375 0.140625 0.3125q0 0.1875 -0.140625 0.3125q-0.125 0.109375 -0.4375 0.109375l-4.671875 0l0 5.734375q0 0.75 0.59375 1.265625q0.609375 0.5 1.765625 0.5q0.875 0 1.890625 -0.265625q1.015625 -0.265625 1.578125 -0.59375q0.203125 -0.125 0.328125 -0.125q0.171875 0 0.296875 0.125q0.125 0.125 0.125 0.296875q0 0.15625 -0.140625 0.28125q-0.328125 0.34375 -1.59375 0.75q-1.265625 0.390625 -2.421875 0.390625q-1.515625 0 -2.40625 -0.703125q-0.890625 -0.71875 -0.890625 -1.921875l0 -5.734375l-1.578125 0q-0.3125 0 -0.453125 -0.109375q-0.125 -0.125 -0.125 -0.328125q0 -0.1875 0.125 -0.296875q0.140625 -0.125 0.453125 -0.125l1.578125 0l0 -2.546875q0 -0.3125 0.125 -0.4375q0.125 -0.140625 0.3125 -0.140625q0.1875 0 0.3125 0.140625q0.125 0.125 0.125 0.4375l0 2.546875zm16.85205 8.875l0 -1.234375q-1.875 1.578125 -4.015625 1.578125q-1.546875 0 -2.421875 -0.78125q-0.859375 -0.796875 -0.859375 -1.9375q0 -1.25 1.140625 -2.171875q1.15625 -0.9375 3.359375 -0.9375q0.59375 0 1.28125 0.078125q0.703125 0.078125 1.515625 0.234375l0 -1.390625q0 -0.703125 -0.65625 -1.21875q-0.65625 -0.53125 -1.96875 -0.53125q-1.015625 0 -2.828125 0.578125q-0.328125 0.109375 -0.421875 0.109375q-0.15625 0 -0.28125 -0.125q-0.109375 -0.125 -0.109375 -0.3125q0 -0.171875 0.09375 -0.28125q0.15625 -0.140625 1.171875 -0.40625q1.59375 -0.4375 2.40625 -0.4375q1.640625 0 2.546875 0.8125q0.921875 0.796875 0.921875 1.8125l0 5.703125l1.140625 0q0.3125 0 0.4375 0.125q0.140625 0.109375 0.140625 0.296875q0 0.1875 -0.140625 0.3125q-0.125 0.125 -0.4375 0.125l-2.015625 0zm0 -4.28125q-0.609375 -0.171875 -1.296875 -0.25q-0.671875 -0.09375 -1.40625 -0.09375q-1.890625 0 -2.9375 0.8125q-0.796875 0.609375 -0.796875 1.4375q0 0.78125 0.609375 1.328125q0.609375 0.53125 1.78125 0.53125q1.109375 0 2.0625 -0.453125q0.96875 -0.453125 1.984375 -1.421875l0 -1.890625zm8.352051 -4.59375l4.671875 0q0.3125 0 0.4375 0.125q0.140625 0.109375 0.140625 0.3125q0 0.1875 -0.140625 0.3125q-0.125 0.109375 -0.4375 0.109375l-4.671875 0l0 5.734375q0 0.75 0.59375 1.265625q0.609375 0.5 1.765625 0.5q0.875 0 1.890625 -0.265625q1.015625 -0.265625 1.578125 -0.59375q0.203125 -0.125 0.328125 -0.125q0.171875 0 0.296875 0.125q0.125 0.125 0.125 0.296875q0 0.15625 -0.140625 0.28125q-0.328125 0.34375 -1.59375 0.75q-1.265625 0.390625 -2.421875 0.390625q-1.515625 0 -2.40625 -0.703125q-0.890625 -0.71875 -0.890625 -1.921875l0 -5.734375l-1.578125 0q-0.3125 0 -0.453125 -0.109375q-0.125 -0.125 -0.125 -0.328125q0 -0.1875 0.125 -0.296875q0.140625 -0.125 0.453125 -0.125l1.578125 0l0 -2.546875q0 -0.3125 0.125 -0.4375q0.125 -0.140625 0.3125 -0.140625q0.1875 0 0.3125 0.140625q0.125 0.125 0.125 0.4375l0 2.546875zm19.03955 4.640625l-8.78125 0q0.21875 1.671875 1.390625 2.703125q1.1875 1.015625 2.90625 1.015625q0.96875 0 2.015625 -0.3125q1.0625 -0.328125 1.734375 -0.859375q0.1875 -0.140625 0.34375 -0.140625q0.15625 0 0.28125 0.125q0.125 0.125 0.125 0.296875q0 0.171875 -0.171875 0.34375q-0.484375 0.515625 -1.75 0.96875q-1.25 0.4375 -2.578125 0.4375q-2.203125 0 -3.6875 -1.453125q-1.484375 -1.453125 -1.484375 -3.515625q0 -1.875 1.390625 -3.21875q1.390625 -1.34375 3.4375 -1.34375q2.109375 0 3.46875 1.390625q1.375 1.375 1.359375 3.5625zm-0.875 -0.875q-0.265625 -1.421875 -1.359375 -2.3125q-1.078125 -0.890625 -2.59375 -0.890625q-1.5 0 -2.59375 0.890625q-1.078125 0.875 -1.359375 2.3125l7.90625 0zm11.648926 -3.203125q0 -0.296875 0.125 -0.421875q0.125 -0.140625 0.3125 -0.140625q0.1875 0 0.3125 0.140625q0.125 0.125 0.125 0.4375l0 1.484375q0 0.296875 -0.125 0.4375q-0.125 0.125 -0.3125 0.125q-0.171875 0 -0.296875 -0.109375q-0.109375 -0.109375 -0.140625 -0.375q-0.0625 -0.609375 -0.625 -1.0q-0.84375 -0.578125 -2.234375 -0.578125q-1.4375 0 -2.234375 0.578125q-0.609375 0.4375 -0.609375 0.984375q0 0.625 0.71875 1.03125q0.484375 0.28125 1.859375 0.4375q1.796875 0.1875 2.5 0.4375q0.984375 0.359375 1.46875 1.0q0.5 0.640625 0.5 1.375q0 1.09375 -1.0625 1.953125q-1.046875 0.859375 -3.09375 0.859375q-2.046875 0 -3.34375 -1.046875q0 0.359375 -0.046875 0.46875q-0.03125 0.09375 -0.140625 0.171875q-0.109375 0.0625 -0.25 0.0625q-0.171875 0 -0.296875 -0.125q-0.125 -0.140625 -0.125 -0.453125l0 -1.765625q0 -0.3125 0.109375 -0.4375q0.125 -0.140625 0.3125 -0.140625q0.1875 0 0.3125 0.125q0.140625 0.125 0.140625 0.34375q0 0.46875 0.234375 0.796875q0.359375 0.484375 1.140625 0.8125q0.78125 0.328125 1.921875 0.328125q1.6875 0 2.5 -0.625q0.828125 -0.640625 0.828125 -1.328125q0 -0.796875 -0.84375 -1.28125q-0.828125 -0.484375 -2.4375 -0.640625q-1.609375 -0.171875 -2.3125 -0.4375q-0.6875 -0.265625 -1.078125 -0.796875q-0.390625 -0.53125 -0.390625 -1.15625q0 -1.109375 1.078125 -1.75q1.09375 -0.65625 2.609375 -0.65625q1.78125 0 2.890625 0.875zm8.055176 5.21875l2.796875 0l-3.046875 5.65625q-0.265625 0.515625 -0.65625 0.515625q-0.265625 0 -0.453125 -0.1875q-0.171875 -0.171875 -0.171875 -0.421875q0 -0.109375 0.03125 -0.234375l1.5 -5.328125zm13.273926 -5.78125l0 2.171875q1.6875 -1.515625 2.515625 -1.953125q0.84375 -0.4375 1.546875 -0.4375q0.765625 0 1.421875 0.515625q0.671875 0.515625 0.671875 0.78125q0 0.203125 -0.125 0.328125q-0.125 0.125 -0.328125 0.125q-0.09375 0 -0.171875 -0.03125q-0.078125 -0.03125 -0.265625 -0.234375q-0.359375 -0.359375 -0.625 -0.484375q-0.265625 -0.140625 -0.53125 -0.140625q-0.5625 0 -1.359375 0.453125q-0.78125 0.453125 -2.75 2.203125l0 4.71875l3.8125 0q0.328125 0 0.453125 0.125q0.140625 0.109375 0.140625 0.296875q0 0.1875 -0.140625 0.3125q-0.125 0.125 -0.453125 0.125l-6.75 0q-0.3125 0 -0.453125 -0.109375q-0.125 -0.125 -0.125 -0.3125q0 -0.171875 0.125 -0.28125q0.140625 -0.125 0.453125 -0.125l2.078125 0l0 -7.1875l-1.59375 0q-0.296875 0 -0.4375 -0.109375q-0.125 -0.125 -0.125 -0.328125q0 -0.1875 0.125 -0.296875q0.125 -0.125 0.4375 -0.125l2.453125 0zm18.305176 4.640625l-8.78125 0q0.21875 1.671875 1.390625 2.703125q1.1875 1.015625 2.90625 1.015625q0.96875 0 2.015625 -0.3125q1.0625 -0.328125 1.734375 -0.859375q0.1875 -0.140625 0.34375 -0.140625q0.15625 0 0.28125 0.125q0.125 0.125 0.125 0.296875q0 0.171875 -0.171875 0.34375q-0.484375 0.515625 -1.75 0.96875q-1.25 0.4375 -2.578125 0.4375q-2.203125 0 -3.6875 -1.453125q-1.484375 -1.453125 -1.484375 -3.515625q0 -1.875 1.390625 -3.21875q1.390625 -1.34375 3.4375 -1.34375q2.109375 0 3.46875 1.390625q1.375 1.375 1.359375 3.5625zm-0.875 -0.875q-0.265625 -1.421875 -1.359375 -2.3125q-1.078125 -0.890625 -2.59375 -0.890625q-1.5 0 -2.59375 0.890625q-1.078125 0.875 -1.359375 2.3125l7.90625 0zm11.773926 5.109375l-1.0625 0.015625l-1.890625 -5.546875l-1.890625 5.546875l-1.0625 -0.015625l-1.796875 -8.015625l-0.40625 0q-0.3125 0 -0.453125 -0.109375q-0.125 -0.125 -0.125 -0.328125q0 -0.1875 0.125 -0.296875q0.140625 -0.125 0.453125 -0.125l2.359375 0q0.3125 0 0.4375 0.125q0.140625 0.109375 0.140625 0.3125q0 0.1875 -0.140625 0.3125q-0.125 0.109375 -0.4375 0.109375l-1.09375 0l1.53125 6.84375l1.828125 -5.46875l1.03125 0l1.890625 5.46875l1.453125 -6.84375l-1.078125 0q-0.3125 0 -0.453125 -0.109375q-0.140625 -0.125 -0.140625 -0.328125q0 -0.1875 0.125 -0.296875q0.140625 -0.125 0.46875 -0.125l2.359375 0q0.3125 0 0.4375 0.125q0.140625 0.109375 0.140625 0.3125q0 0.1875 -0.140625 0.3125q-0.125 0.109375 -0.4375 0.109375l-0.421875 0l-1.75 8.015625zm12.117676 0l0 -1.234375q-1.875 1.578125 -4.015625 1.578125q-1.546875 0 -2.421875 -0.78125q-0.859375 -0.796875 -0.859375 -1.9375q0 -1.25 1.140625 -2.171875q1.15625 -0.9375 3.359375 -0.9375q0.59375 0 1.28125 0.078125q0.703125 0.078125 1.515625 0.234375l0 -1.390625q0 -0.703125 -0.65625 -1.21875q-0.65625 -0.53125 -1.96875 -0.53125q-1.015625 0 -2.828125 0.578125q-0.328125 0.109375 -0.421875 0.109375q-0.15625 0 -0.28125 -0.125q-0.109375 -0.125 -0.109375 -0.3125q0 -0.171875 0.09375 -0.28125q0.15625 -0.140625 1.171875 -0.40625q1.59375 -0.4375 2.40625 -0.4375q1.640625 0 2.546875 0.8125q0.921875 0.796875 0.921875 1.8125l0 5.703125l1.140625 0q0.3125 0 0.4375 0.125q0.140625 0.109375 0.140625 0.296875q0 0.1875 -0.140625 0.3125q-0.125 0.125 -0.4375 0.125l-2.015625 0zm0 -4.28125q-0.609375 -0.171875 -1.296875 -0.25q-0.671875 -0.09375 -1.40625 -0.09375q-1.890625 0 -2.9375 0.8125q-0.796875 0.609375 -0.796875 1.4375q0 0.78125 0.609375 1.328125q0.609375 0.53125 1.78125 0.53125q1.109375 0 2.0625 -0.453125q0.96875 -0.453125 1.984375 -1.421875l0 -1.890625zm9.086426 -4.59375l0 2.171875q1.6875 -1.515625 2.515625 -1.953125q0.84375 -0.4375 1.546875 -0.4375q0.765625 0 1.421875 0.515625q0.671875 0.515625 0.671875 0.78125q0 0.203125 -0.125 0.328125q-0.125 0.125 -0.328125 0.125q-0.09375 0 -0.171875 -0.03125q-0.078125 -0.03125 -0.265625 -0.234375q-0.359375 -0.359375 -0.625 -0.484375q-0.265625 -0.140625 -0.53125 -0.140625q-0.5625 0 -1.359375 0.453125q-0.78125 0.453125 -2.75 2.203125l0 4.71875l3.8125 0q0.328125 0 0.453125 0.125q0.140625 0.109375 0.140625 0.296875q0 0.1875 -0.140625 0.3125q-0.125 0.125 -0.453125 0.125l-6.75 0q-0.3125 0 -0.453125 -0.109375q-0.125 -0.125 -0.125 -0.3125q0 -0.171875 0.125 -0.28125q0.140625 -0.125 0.453125 -0.125l2.078125 0l0 -7.1875l-1.59375 0q-0.296875 0 -0.4375 -0.109375q-0.125 -0.125 -0.125 -0.328125q0 -0.1875 0.125 -0.296875q0.125 -0.125 0.4375 -0.125l2.453125 0zm17.85205 -4.0l0 12.015625l1.15625 0q0.3125 0 0.4375 0.125q0.140625 0.109375 0.140625 0.296875q0 0.1875 -0.140625 0.3125q-0.125 0.125 -0.4375 0.125l-2.015625 0l0 -1.71875q-1.5 2.0625 -3.8125 2.0625q-1.171875 0 -2.25 -0.625q-1.0625 -0.625 -1.6875 -1.765625q-0.609375 -1.15625 -0.609375 -2.375q0 -1.234375 0.609375 -2.375q0.625 -1.140625 1.6875 -1.765625q1.078125 -0.625 2.265625 -0.625q2.25 0 3.796875 2.046875l0 -4.859375l-1.15625 0q-0.3125 0 -0.453125 -0.125q-0.125 -0.125 -0.125 -0.3125q0 -0.1875 0.125 -0.3125q0.140625 -0.125 0.453125 -0.125l2.015625 0zm-0.859375 8.453125q0 -1.640625 -1.109375 -2.765625q-1.109375 -1.125 -2.640625 -1.125q-1.53125 0 -2.640625 1.125q-1.109375 1.125 -1.109375 2.765625q0 1.625 1.109375 2.765625q1.109375 1.140625 2.640625 1.140625q1.53125 0 2.640625 -1.140625q1.109375 -1.140625 1.109375 -2.765625zm12.086426 -3.890625q0 -0.296875 0.125 -0.421875q0.125 -0.140625 0.3125 -0.140625q0.1875 0 0.3125 0.140625q0.125 0.125 0.125 0.4375l0 1.484375q0 0.296875 -0.125 0.4375q-0.125 0.125 -0.3125 0.125q-0.171875 0 -0.296875 -0.109375q-0.109375 -0.109375 -0.140625 -0.375q-0.0625 -0.609375 -0.625 -1.0q-0.84375 -0.578125 -2.234375 -0.578125q-1.4375 0 -2.234375 0.578125q-0.609375 0.4375 -0.609375 0.984375q0 0.625 0.71875 1.03125q0.484375 0.28125 1.859375 0.4375q1.796875 0.1875 2.5 0.4375q0.984375 0.359375 1.46875 1.0q0.5 0.640625 0.5 1.375q0 1.09375 -1.0625 1.953125q-1.046875 0.859375 -3.09375 0.859375q-2.046875 0 -3.34375 -1.046875q0 0.359375 -0.046875 0.46875q-0.03125 0.09375 -0.140625 0.171875q-0.109375 0.0625 -0.25 0.0625q-0.171875 0 -0.296875 -0.125q-0.125 -0.140625 -0.125 -0.453125l0 -1.765625q0 -0.3125 0.109375 -0.4375q0.125 -0.140625 0.3125 -0.140625q0.1875 0 0.3125 0.125q0.140625 0.125 0.140625 0.34375q0 0.46875 0.234375 0.796875q0.359375 0.484375 1.140625 0.8125q0.78125 0.328125 1.921875 0.328125q1.6875 0 2.5 -0.625q0.828125 -0.640625 0.828125 -1.328125q0 -0.796875 -0.84375 -1.28125q-0.828125 -0.484375 -2.4375 -0.640625q-1.609375 -0.171875 -2.3125 -0.4375q-0.6875 -0.265625 -1.078125 -0.796875q-0.390625 -0.53125 -0.390625 -1.15625q0 -1.109375 1.078125 -1.75q1.09375 -0.65625 2.609375 -0.65625q1.78125 0 2.890625 0.875z" fill-rule="nonzero"/><path fill="#000000" fill-opacity="0.0" d="m526.09186 81.46063l112.8504 0l0 45.259842l-112.8504 0z" fill-rule="evenodd"/><path fill="#000000" d="m543.8731 110.94063l0 -1.234375q-1.875 1.578125 -4.015625 1.578125q-1.546875 0 -2.421875 -0.78125q-0.859375 -0.796875 -0.859375 -1.9375q0 -1.25 1.140625 -2.171875q1.15625 -0.9375 3.359375 -0.9375q0.59375 0 1.28125 0.078125q0.703125 0.078125 1.515625 0.234375l0 -1.390625q0 -0.703125 -0.65625 -1.21875q-0.65625 -0.53125 -1.96875 -0.53125q-1.015625 0 -2.828125 0.578125q-0.328125 0.109375 -0.421875 0.109375q-0.15625 0 -0.28125 -0.125q-0.109375 -0.125 -0.109375 -0.3125q0 -0.171875 0.09375 -0.28125q0.15625 -0.140625 1.171875 -0.40625q1.59375 -0.4375 2.40625 -0.4375q1.640625 0 2.546875 0.8125q0.921875 0.796875 0.921875 1.8125l0 5.703125l1.140625 0q0.3125 0 0.4375 0.125q0.140625 0.109375 0.140625 0.296875q0 0.1875 -0.140625 0.3125q-0.125 0.125 -0.4375 0.125l-2.015625 0zm0 -4.28125q-0.609375 -0.171875 -1.296875 -0.25q-0.671875 -0.09375 -1.40625 -0.09375q-1.890625 0 -2.9375 0.8125q-0.796875 0.609375 -0.796875 1.4375q0 0.78125 0.609375 1.328125q0.609375 0.53125 1.78125 0.53125q1.109375 0 2.0625 -0.453125q0.96875 -0.453125 1.984375 -1.421875l0 -1.890625zm13.711426 -3.734375l0 -0.28125q0 -0.3125 0.125 -0.4375q0.125 -0.140625 0.3125 -0.140625q0.1875 0 0.3125 0.140625q0.125 0.125 0.125 0.4375l0 1.953125q-0.015625 0.3125 -0.140625 0.453125q-0.109375 0.125 -0.296875 0.125q-0.171875 0 -0.296875 -0.109375q-0.109375 -0.125 -0.140625 -0.40625q-0.0625 -0.71875 -0.953125 -1.375q-0.890625 -0.65625 -2.421875 -0.65625q-1.90625 0 -2.90625 1.203125q-1.0 1.1875 -1.0 2.734375q0 1.671875 1.09375 2.765625q1.109375 1.09375 2.84375 1.09375q1.015625 0 2.046875 -0.375q1.046875 -0.375 1.890625 -1.1875q0.203125 -0.203125 0.375 -0.203125q0.171875 0 0.28125 0.125q0.125 0.109375 0.125 0.28125q0 0.4375 -1.03125 1.109375q-1.671875 1.109375 -3.71875 1.109375q-2.078125 0 -3.421875 -1.328125q-1.34375 -1.328125 -1.34375 -3.375q0 -2.078125 1.359375 -3.453125q1.375 -1.375 3.46875 -1.375q1.96875 0 3.3125 1.171875zm7.242676 -0.859375l4.671875 0q0.3125 0 0.4375 0.125q0.140625 0.109375 0.140625 0.3125q0 0.1875 -0.140625 0.3125q-0.125 0.109375 -0.4375 0.109375l-4.671875 0l0 5.734375q0 0.75 0.59375 1.265625q0.609375 0.5 1.765625 0.5q0.875 0 1.890625 -0.265625q1.015625 -0.265625 1.578125 -0.59375q0.203125 -0.125 0.328125 -0.125q0.171875 0 0.296875 0.125q0.125 0.125 0.125 0.296875q0 0.15625 -0.140625 0.28125q-0.328125 0.34375 -1.59375 0.75q-1.265625 0.390625 -2.421875 0.390625q-1.515625 0 -2.40625 -0.703125q-0.890625 -0.71875 -0.890625 -1.921875l0 -5.734375l-1.578125 0q-0.3125 0 -0.453125 -0.109375q-0.125 -0.125 -0.125 -0.328125q0 -0.1875 0.125 -0.296875q0.140625 -0.125 0.453125 -0.125l1.578125 0l0 -2.546875q0 -0.3125 0.125 -0.4375q0.125 -0.140625 0.3125 -0.140625q0.1875 0 0.3125 0.140625q0.125 0.125 0.125 0.4375l0 2.546875zm14.805176 -4.421875l0 2.21875l-1.28125 0l0 -2.21875l1.28125 0zm0.015625 4.421875l0 8.015625l3.390625 0q0.3125 0 0.4375 0.125q0.140625 0.109375 0.140625 0.296875q0 0.1875 -0.140625 0.3125q-0.125 0.125 -0.4375 0.125l-7.625 0q-0.3125 0 -0.453125 -0.125q-0.125 -0.125 -0.125 -0.3125q0 -0.1875 0.125 -0.296875q0.140625 -0.125 0.453125 -0.125l3.375 0l0 -7.15625l-2.5 0q-0.3125 0 -0.453125 -0.109375q-0.140625 -0.125 -0.140625 -0.3125q0 -0.203125 0.125 -0.3125q0.140625 -0.125 0.46875 -0.125l3.359375 0zm16.961426 4.453125q0 1.96875 -1.40625 3.375q-1.40625 1.390625 -3.390625 1.390625q-2.015625 0 -3.421875 -1.40625q-1.40625 -1.40625 -1.40625 -3.359375q0 -1.96875 1.40625 -3.359375q1.40625 -1.40625 3.421875 -1.40625q1.984375 0 3.390625 1.390625q1.40625 1.390625 1.40625 3.375zm-0.859375 0q0 -1.625 -1.15625 -2.75q-1.15625 -1.140625 -2.796875 -1.140625q-1.640625 0 -2.796875 1.140625q-1.15625 1.140625 -1.15625 2.75q0 1.609375 1.15625 2.765625q1.15625 1.140625 2.796875 1.140625q1.640625 0 2.796875 -1.140625q1.15625 -1.15625 1.15625 -2.765625zm5.867676 -4.453125l0 1.296875q0.90625 -0.90625 1.625 -1.25q0.734375 -0.359375 1.640625 -0.359375q0.984375 0 1.796875 0.421875q0.578125 0.3125 1.046875 1.03125q0.46875 0.703125 0.46875 1.453125l0 5.421875l0.71875 0q0.3125 0 0.4375 0.125q0.140625 0.109375 0.140625 0.296875q0 0.1875 -0.140625 0.3125q-0.125 0.125 -0.4375 0.125l-2.296875 0q-0.328125 0 -0.46875 -0.125q-0.125 -0.125 -0.125 -0.3125q0 -0.1875 0.125 -0.296875q0.140625 -0.125 0.46875 -0.125l0.71875 0l0 -5.28125q0 -0.921875 -0.671875 -1.546875q-0.671875 -0.625 -1.78125 -0.625q-0.859375 0 -1.484375 0.34375q-0.625 0.34375 -1.78125 1.703125l0 5.40625l0.96875 0q0.3125 0 0.4375 0.125q0.140625 0.109375 0.140625 0.296875q0 0.1875 -0.140625 0.3125q-0.125 0.125 -0.4375 0.125l-2.796875 0q-0.3125 0 -0.453125 -0.125q-0.125 -0.125 -0.125 -0.3125q0 -0.1875 0.125 -0.296875q0.140625 -0.125 0.453125 -0.125l0.96875 0l0 -7.15625l-0.734375 0q-0.296875 0 -0.4375 -0.109375q-0.125 -0.125 -0.125 -0.328125q0 -0.1875 0.125 -0.296875q0.140625 -0.125 0.4375 -0.125l1.59375 0zm18.22705 0.5625q0 -0.296875 0.125 -0.421875q0.125 -0.140625 0.3125 -0.140625q0.1875 0 0.3125 0.140625q0.125 0.125 0.125 0.4375l0 1.484375q0 0.296875 -0.125 0.4375q-0.125 0.125 -0.3125 0.125q-0.171875 0 -0.296875 -0.109375q-0.109375 -0.109375 -0.140625 -0.375q-0.0625 -0.609375 -0.625 -1.0q-0.84375 -0.578125 -2.234375 -0.578125q-1.4375 0 -2.234375 0.578125q-0.609375 0.4375 -0.609375 0.984375q0 0.625 0.71875 1.03125q0.484375 0.28125 1.859375 0.4375q1.796875 0.1875 2.5 0.4375q0.984375 0.359375 1.46875 1.0q0.5 0.640625 0.5 1.375q0 1.09375 -1.0625 1.953125q-1.046875 0.859375 -3.09375 0.859375q-2.046875 0 -3.34375 -1.046875q0 0.359375 -0.046875 0.46875q-0.03125 0.09375 -0.140625 0.171875q-0.109375 0.0625 -0.25 0.0625q-0.171875 0 -0.296875 -0.125q-0.125 -0.140625 -0.125 -0.453125l0 -1.765625q0 -0.3125 0.109375 -0.4375q0.125 -0.140625 0.3125 -0.140625q0.1875 0 0.3125 0.125q0.140625 0.125 0.140625 0.34375q0 0.46875 0.234375 0.796875q0.359375 0.484375 1.140625 0.8125q0.78125 0.328125 1.921875 0.328125q1.6875 0 2.5 -0.625q0.828125 -0.640625 0.828125 -1.328125q0 -0.796875 -0.84375 -1.28125q-0.828125 -0.484375 -2.4375 -0.640625q-1.609375 -0.171875 -2.3125 -0.4375q-0.6875 -0.265625 -1.078125 -0.796875q-0.390625 -0.53125 -0.390625 -1.15625q0 -1.109375 1.078125 -1.75q1.09375 -0.65625 2.609375 -0.65625q1.78125 0 2.890625 0.875z" fill-rule="nonzero"/><path fill="#000000" fill-opacity="0.0" d="m219.05574 7.886686c20.66951 -1.3113298 85.688 -8.013683 124.017075 -7.8679795c38.32907 0.14570332 88.29782 7.2851663 105.95737 8.7422" fill-rule="evenodd"/><path stroke="#434343" stroke-width="2.0" stroke-linejoin="round" stroke-linecap="butt" d="m219.05574 7.886686c20.66951 -1.3113298 85.688 -8.013683 124.017075 -7.8679795c19.16455 0.07285166 41.238983 1.8941432 60.729767 3.879351c9.745361 0.992604 18.844818 2.0261867 26.611664 2.9026835c1.9416809 0.21912384 3.8001099 0.42843056 5.564514 0.62482405l1.1128235 0.122970104" fill-rule="evenodd"/><path fill="#434343" stroke="#434343" stroke-width="2.0" stroke-linecap="butt" d="m436.75784 10.835096l9.363495 -2.369585l-8.696014 -4.203539z" fill-rule="evenodd"/><path fill="#000000" fill-opacity="0.0" d="m448.03 46.025074c-20.6232 1.3963127 -85.49597 8.53302 -123.73917 8.377876c-38.243195 -0.15514755 -88.099976 -7.7572937 -105.71997 -9.30875" fill-rule="evenodd"/><path stroke="#434343" stroke-width="2.0" stroke-linejoin="round" stroke-linecap="butt" d="m448.03003 46.025074c-20.6232 1.3963127 -85.49603 8.533024 -123.7392 8.377876c-19.121613 -0.07757187 -41.146606 -2.016899 -60.59369 -4.13076c-9.723541 -1.0569305 -18.802628 -2.1574936 -26.552048 -3.0907974c-1.9373627 -0.23332214 -3.7916107 -0.45619202 -5.552063 -0.66531754l-1.092041 -0.12878036" fill-rule="evenodd"/><path fill="#434343" stroke="#434343" stroke-width="2.0" stroke-linecap="butt" d="m230.85696 43.103065l-9.379318 2.3061943l8.667374 4.2622643z" fill-rule="evenodd"/><path fill="#000000" fill-opacity="0.0" d="m236.42006 1.7624671l222.80315 0l0 45.259842l-222.80315 0z" fill-rule="evenodd"/><path fill="#000000" d="m252.15443 18.367466l0 12.015625l3.390625 0q0.3125 0 0.4375 0.125q0.14060974 0.109375 0.14060974 0.296875q0 0.1875 -0.14060974 0.3125q-0.125 0.125 -0.4375 0.125l-7.640625 0q-0.296875 0 -0.4375 -0.125q-0.125 -0.125 -0.125 -0.3125q0 -0.1875 0.125 -0.296875q0.140625 -0.125 0.4375 -0.125l3.390625 0l0 -11.140625l-2.484375 0q-0.296875 0 -0.4375 -0.125q-0.140625 -0.125 -0.140625 -0.3125q0 -0.1875 0.125 -0.3125q0.140625 -0.125 0.453125 -0.125l3.34375 0zm14.6489105 12.875l0 -1.234375q-1.875 1.578125 -4.015625 1.578125q-1.546875 0 -2.421875 -0.78125q-0.859375 -0.796875 -0.859375 -1.9375q0 -1.25 1.140625 -2.171875q1.15625 -0.9375 3.359375 -0.9375q0.59375 0 1.28125 0.078125q0.703125 0.078125 1.515625 0.234375l0 -1.390625q0 -0.703125 -0.65625 -1.21875q-0.65625 -0.53125 -1.96875 -0.53125q-1.015625 0 -2.828125 0.578125q-0.328125 0.109375 -0.421875 0.109375q-0.15625 0 -0.28125 -0.125q-0.109375 -0.125 -0.109375 -0.3125q0 -0.171875 0.09375 -0.28125q0.15625 -0.140625 1.171875 -0.40625q1.59375 -0.4375 2.40625 -0.4375q1.640625 0 2.546875 0.8125q0.921875 0.796875 0.921875 1.8125l0 5.703125l1.140625 0q0.3125 0 0.4375 0.125q0.140625 0.109375 0.140625 0.296875q0 0.1875 -0.140625 0.3125q-0.125 0.125 -0.4375 0.125l-2.015625 0zm0 -4.28125q-0.609375 -0.171875 -1.296875 -0.25q-0.671875 -0.09375 -1.40625 -0.09375q-1.890625 0 -2.9375 0.8125q-0.796875 0.609375 -0.796875 1.4375q0 0.78125 0.609375 1.328125q0.609375 0.53125 1.78125 0.53125q1.109375 0 2.0625 -0.453125q0.96875 -0.453125 1.984375 -1.421875l0 -1.890625zm8.352051 -4.59375l4.671875 0q0.3125 0 0.4375 0.125q0.140625 0.109375 0.140625 0.3125q0 0.1875 -0.140625 0.3125q-0.125 0.109375 -0.4375 0.109375l-4.671875 0l0 5.734375q0 0.75 0.59375 1.265625q0.609375 0.5 1.765625 0.5q0.875 0 1.890625 -0.265625q1.015625 -0.265625 1.578125 -0.59375q0.203125 -0.125 0.328125 -0.125q0.171875 0 0.296875 0.125q0.125 0.125 0.125 0.296875q0 0.15625 -0.140625 0.28125q-0.328125 0.34375 -1.59375 0.75q-1.265625 0.390625 -2.421875 0.390625q-1.515625 0 -2.40625 -0.703125q-0.890625 -0.71875 -0.890625 -1.921875l0 -5.734375l-1.578125 0q-0.3125 0 -0.453125 -0.109375q-0.125 -0.125 -0.125 -0.328125q0 -0.1875 0.125 -0.296875q0.140625 -0.125 0.453125 -0.125l1.578125 0l0 -2.546875q0 -0.3125 0.125 -0.4375q0.125 -0.140625 0.3125 -0.140625q0.1875 0 0.3125 0.140625q0.125 0.125 0.125 0.4375l0 2.546875zm19.03955 4.640625l-8.78125 0q0.21875 1.671875 1.390625 2.703125q1.1875 1.015625 2.90625 1.015625q0.96875 0 2.015625 -0.3125q1.0625 -0.328125 1.734375 -0.859375q0.1875 -0.140625 0.34375 -0.140625q0.15625 0 0.28125 0.125q0.125 0.125 0.125 0.296875q0 0.171875 -0.171875 0.34375q-0.484375 0.515625 -1.75 0.96875q-1.25 0.4375 -2.578125 0.4375q-2.203125 0 -3.6875 -1.453125q-1.484375 -1.453125 -1.484375 -3.515625q0 -1.875 1.390625 -3.21875q1.390625 -1.34375 3.4375 -1.34375q2.109375 0 3.46875 1.390625q1.375 1.375 1.359375 3.5625zm-0.875 -0.875q-0.265625 -1.421875 -1.359375 -2.3125q-1.078125 -0.890625 -2.59375 -0.890625q-1.5 0 -2.59375 0.890625q-1.078125 0.875 -1.359375 2.3125l7.90625 0zm11.648926 -3.203125q0 -0.296875 0.125 -0.421875q0.125 -0.140625 0.3125 -0.140625q0.1875 0 0.3125 0.140625q0.125 0.125 0.125 0.4375l0 1.484375q0 0.296875 -0.125 0.4375q-0.125 0.125 -0.3125 0.125q-0.171875 0 -0.296875 -0.109375q-0.109375 -0.109375 -0.140625 -0.375q-0.0625 -0.609375 -0.625 -1.0q-0.84375 -0.578125 -2.234375 -0.578125q-1.4375 0 -2.234375 0.578125q-0.609375 0.4375 -0.609375 0.984375q0 0.625 0.71875 1.03125q0.484375 0.28125 1.859375 0.4375q1.796875 0.1875 2.5 0.4375q0.984375 0.359375 1.46875 1.0q0.5 0.640625 0.5 1.375q0 1.09375 -1.0625 1.953125q-1.046875 0.859375 -3.09375 0.859375q-2.046875 0 -3.34375 -1.046875q0 0.359375 -0.046875 0.46875q-0.03125 0.09375 -0.140625 0.171875q-0.109375 0.0625 -0.25 0.0625q-0.171875 0 -0.296875 -0.125q-0.125 -0.140625 -0.125 -0.453125l0 -1.765625q0 -0.3125 0.109375 -0.4375q0.125 -0.140625 0.3125 -0.140625q0.1875 0 0.3125 0.125q0.140625 0.125 0.140625 0.34375q0 0.46875 0.234375 0.796875q0.359375 0.484375 1.140625 0.8125q0.78125 0.328125 1.921875 0.328125q1.6875 0 2.5 -0.625q0.828125 -0.640625 0.828125 -1.328125q0 -0.796875 -0.84375 -1.28125q-0.828125 -0.484375 -2.4375 -0.640625q-1.609375 -0.171875 -2.3125 -0.4375q-0.6875 -0.265625 -1.078125 -0.796875q-0.390625 -0.53125 -0.390625 -1.15625q0 -1.109375 1.078125 -1.75q1.09375 -0.65625 2.609375 -0.65625q1.78125 0 2.890625 0.875zm7.992676 -0.5625l4.671875 0q0.3125 0 0.4375 0.125q0.140625 0.109375 0.140625 0.3125q0 0.1875 -0.140625 0.3125q-0.125 0.109375 -0.4375 0.109375l-4.671875 0l0 5.734375q0 0.75 0.59375 1.265625q0.609375 0.5 1.765625 0.5q0.875 0 1.890625 -0.265625q1.015625 -0.265625 1.578125 -0.59375q0.203125 -0.125 0.328125 -0.125q0.171875 0 0.296875 0.125q0.125 0.125 0.125 0.296875q0 0.15625 -0.140625 0.28125q-0.328125 0.34375 -1.59375 0.75q-1.265625 0.390625 -2.421875 0.390625q-1.515625 0 -2.40625 -0.703125q-0.890625 -0.71875 -0.890625 -1.921875l0 -5.734375l-1.578125 0q-0.3125 0 -0.453125 -0.109375q-0.125 -0.125 -0.125 -0.328125q0 -0.1875 0.125 -0.296875q0.140625 -0.125 0.453125 -0.125l1.578125 0l0 -2.546875q0 -0.3125 0.125 -0.4375q0.125 -0.140625 0.3125 -0.140625q0.1875 0 0.3125 0.140625q0.125 0.125 0.125 0.4375l0 2.546875zm23.735352 0l0 1.5625q0.765625 -0.9375 1.640625 -1.40625q0.890625 -0.46875 2.078125 -0.46875q1.28125 0 2.359375 0.59375q1.078125 0.59375 1.65625 1.65625q0.59375 1.0625 0.59375 2.234375q0 1.859375 -1.328125 3.171875q-1.328125 1.3125 -3.265625 1.3125q-2.3125 0 -3.734375 -1.875l0 5.1875l2.078125 0q0.3125 0 0.4375 0.109375q0.140625 0.125 0.140625 0.328125q0 0.1875 -0.140625 0.296875q-0.125 0.125 -0.4375 0.125l-4.109375 0q-0.296875 0 -0.4375 -0.125q-0.125 -0.109375 -0.125 -0.296875q0 -0.203125 0.125 -0.328125q0.140625 -0.109375 0.4375 -0.109375l1.15625 0l0 -11.109375l-1.15625 0q-0.296875 0 -0.4375 -0.109375q-0.125 -0.125 -0.125 -0.328125q0 -0.1875 0.125 -0.296875q0.140625 -0.125 0.4375 -0.125l2.03125 0zm7.453125 4.171875q0 -1.484375 -1.078125 -2.546875q-1.078125 -1.0625 -2.640625 -1.0625q-1.5625 0 -2.65625 1.0625q-1.078125 1.0625 -1.078125 2.546875q0 1.484375 1.078125 2.546875q1.09375 1.0625 2.65625 1.0625q1.546875 0 2.625 -1.046875q1.09375 -1.0625 1.09375 -2.5625zm13.195801 0.28125q0 1.96875 -1.40625 3.375q-1.40625 1.390625 -3.390625 1.390625q-2.015625 0 -3.421875 -1.40625q-1.40625 -1.40625 -1.40625 -3.359375q0 -1.96875 1.40625 -3.359375q1.40625 -1.40625 3.421875 -1.40625q1.984375 0 3.390625 1.390625q1.40625 1.390625 1.40625 3.375zm-0.859375 0q0 -1.625 -1.15625 -2.75q-1.15625 -1.140625 -2.796875 -1.140625q-1.640625 0 -2.796875 1.140625q-1.15625 1.140625 -1.15625 2.75q0 1.609375 1.15625 2.765625q1.15625 1.140625 2.796875 1.140625q1.640625 0 2.796875 -1.140625q1.15625 -1.15625 1.15625 -2.765625zm9.086426 -8.453125l0 12.015625l3.390625 0q0.3125 0 0.4375 0.125q0.140625 0.109375 0.140625 0.296875q0 0.1875 -0.140625 0.3125q-0.125 0.125 -0.4375 0.125l-7.640625 0q-0.296875 0 -0.4375 -0.125q-0.125 -0.125 -0.125 -0.3125q0 -0.1875 0.125 -0.296875q0.140625 -0.125 0.4375 -0.125l3.390625 0l0 -11.140625l-2.484375 0q-0.296875 0 -0.4375 -0.125q-0.140625 -0.125 -0.140625 -0.3125q0 -0.1875 0.125 -0.3125q0.140625 -0.125 0.453125 -0.125l3.34375 0zm12.602051 -0.421875l0 2.21875l-1.28125 0l0 -2.21875l1.28125 0zm0.015625 4.421875l0 8.015625l3.390625 0q0.3125 0 0.4375 0.125q0.140625 0.109375 0.140625 0.296875q0 0.1875 -0.140625 0.3125q-0.125 0.125 -0.4375 0.125l-7.625 0q-0.3125 0 -0.453125 -0.125q-0.125 -0.125 -0.125 -0.3125q0 -0.1875 0.125 -0.296875q0.140625 -0.125 0.453125 -0.125l3.375 0l0 -7.15625l-2.5 0q-0.3125 0 -0.453125 -0.109375q-0.140625 -0.125 -0.140625 -0.3125q0 -0.203125 0.125 -0.3125q0.140625 -0.125 0.46875 -0.125l3.359375 0zm15.742676 0.859375l0 -0.28125q0 -0.3125 0.125 -0.4375q0.125 -0.140625 0.3125 -0.140625q0.1875 0 0.3125 0.140625q0.125 0.125 0.125 0.4375l0 1.953125q-0.015625 0.3125 -0.140625 0.453125q-0.109375 0.125 -0.296875 0.125q-0.171875 0 -0.296875 -0.109375q-0.109375 -0.125 -0.140625 -0.40625q-0.0625 -0.71875 -0.953125 -1.375q-0.890625 -0.65625 -2.421875 -0.65625q-1.90625 0 -2.90625 1.203125q-1.0 1.1875 -1.0 2.734375q0 1.671875 1.09375 2.765625q1.109375 1.09375 2.84375 1.09375q1.015625 0 2.046875 -0.375q1.046875 -0.375 1.890625 -1.1875q0.203125 -0.203125 0.375 -0.203125q0.171875 0 0.28125 0.125q0.125 0.109375 0.125 0.28125q0 0.4375 -1.03125 1.109375q-1.671875 1.109375 -3.71875 1.109375q-2.078125 0 -3.421875 -1.328125q-1.34375 -1.328125 -1.34375 -3.375q0 -2.078125 1.359375 -3.453125q1.375 -1.375 3.46875 -1.375q1.96875 0 3.3125 1.171875zm9.070801 8.015625l-4.0 -8.015625l-0.25 0q-0.3125 0 -0.453125 -0.109375q-0.125 -0.125 -0.125 -0.3125q0 -0.140625 0.0625 -0.234375q0.0625 -0.109375 0.171875 -0.15625q0.109375 -0.046875 0.34375 -0.046875l2.34375 0q0.3125 0 0.4375 0.125q0.140625 0.109375 0.140625 0.3125q0 0.1875 -0.140625 0.3125q-0.125 0.109375 -0.4375 0.109375l-1.15625 0l3.515625 7.078125l3.46875 -7.078125l-1.15625 0q-0.3125 0 -0.453125 -0.109375q-0.125 -0.125 -0.125 -0.328125q0 -0.1875 0.125 -0.296875q0.140625 -0.125 0.453125 -0.125l2.34375 0q0.328125 0 0.453125 0.125q0.140625 0.109375 0.140625 0.3125q0 0.125 -0.09375 0.25q-0.078125 0.109375 -0.1875 0.140625q-0.09375 0.03125 -0.5625 0.03125l-5.453125 11.109375l1.34375 0q0.296875 0 0.4375 0.109375q0.140625 0.125 0.140625 0.328125q0 0.1875 -0.140625 0.296875q-0.140625 0.125 -0.4375 0.125l-4.96875 0q-0.3125 0 -0.453125 -0.125q-0.125 -0.109375 -0.125 -0.296875q0 -0.203125 0.125 -0.328125q0.140625 -0.109375 0.453125 -0.109375l2.703125 0l1.515625 -3.09375z" fill-rule="nonzero"/><path fill="#000000" fill-opacity="0.0" d="m236.42052 48.00525l203.30708 0l0 45.259842l-203.30708 0z" fill-rule="evenodd"/><path fill="#000000" d="m248.48302 68.61025l0 1.5625q0.765625 -0.9375 1.640625 -1.40625q0.890625 -0.46875 2.078125 -0.46875q1.28125 0 2.359375 0.59375q1.078125 0.59375 1.6562347 1.65625q0.59375 1.0625 0.59375 2.234375q0 1.859375 -1.3281097 3.171875q-1.328125 1.3125 -3.265625 1.3125q-2.3125 0 -3.734375 -1.875l0 5.1875l2.078125 0q0.3125 0 0.4375 0.109375q0.140625 0.125 0.140625 0.328125q0 0.1875 -0.140625 0.296875q-0.125 0.125 -0.4375 0.125l-4.109375 0q-0.296875 0 -0.4375 -0.125q-0.125 -0.109375 -0.125 -0.296875q0 -0.203125 0.125 -0.328125q0.140625 -0.109375 0.4375 -0.109375l1.15625 0l0 -11.109375l-1.15625 0q-0.296875 0 -0.4375 -0.109375q-0.125 -0.125 -0.125 -0.328125q0 -0.1875 0.125 -0.296875q0.140625 -0.125 0.4375 -0.125l2.03125 0zm7.453125 4.171875q0 -1.484375 -1.078125 -2.546875q-1.078125 -1.0625 -2.640625 -1.0625q-1.5625 0 -2.65625 1.0625q-1.078125 1.0625 -1.078125 2.546875q0 1.484375 1.078125 2.546875q1.09375 1.0625 2.65625 1.0625q1.546875 0 2.625 -1.046875q1.09375 -1.0625 1.09375 -2.5625zm7.3520355 -4.171875l0 2.171875q1.6875 -1.515625 2.515625 -1.953125q0.84375 -0.4375 1.546875 -0.4375q0.765625 0 1.421875 0.515625q0.671875 0.515625 0.671875 0.78125q0 0.203125 -0.125 0.328125q-0.125 0.125 -0.328125 0.125q-0.09375 0 -0.171875 -0.03125q-0.078125 -0.03125 -0.265625 -0.234375q-0.359375 -0.359375 -0.625 -0.484375q-0.265625 -0.140625 -0.53125 -0.140625q-0.5625 0 -1.359375 0.453125q-0.78125 0.453125 -2.75 2.203125l0 4.71875l3.8125 0q0.328125 0 0.453125 0.125q0.140625 0.109375 0.140625 0.296875q0 0.1875 -0.140625 0.3125q-0.125 0.125 -0.453125 0.125l-6.75 0q-0.3125 0 -0.453125 -0.109375q-0.125 -0.125 -0.125 -0.3125q0 -0.171875 0.125 -0.28125q0.140625 -0.125 0.453125 -0.125l2.078125 0l0 -7.1875l-1.59375 0q-0.296875 0 -0.4375 -0.109375q-0.125 -0.125 -0.125 -0.328125q0 -0.1875 0.125 -0.296875q0.125 -0.125 0.4375 -0.125l2.453125 0zm18.4458 4.453125q0 1.96875 -1.40625 3.375q-1.40625 1.390625 -3.390625 1.390625q-2.015625 0 -3.421875 -1.40625q-1.40625 -1.40625 -1.40625 -3.359375q0 -1.96875 1.40625 -3.359375q1.40625 -1.40625 3.421875 -1.40625q1.984375 0 3.390625 1.390625q1.40625 1.390625 1.40625 3.375zm-0.859375 0q0 -1.625 -1.15625 -2.75q-1.15625 -1.140625 -2.796875 -1.140625q-1.640625 0 -2.796875 1.140625q-1.15625 1.140625 -1.15625 2.75q0 1.609375 1.15625 2.765625q1.15625 1.140625 2.796875 1.140625q1.640625 0 2.796875 -1.140625q1.15625 -1.15625 1.15625 -2.765625zm13.461426 0q0 1.96875 -1.40625 3.375q-1.40625 1.390625 -3.390625 1.390625q-2.015625 0 -3.421875 -1.40625q-1.40625 -1.40625 -1.40625 -3.359375q0 -1.96875 1.40625 -3.359375q1.40625 -1.40625 3.421875 -1.40625q1.984375 0 3.390625 1.390625q1.40625 1.390625 1.40625 3.375zm-0.859375 0q0 -1.625 -1.15625 -2.75q-1.15625 -1.140625 -2.796875 -1.140625q-1.640625 0 -2.796875 1.140625q-1.15625 1.140625 -1.15625 2.75q0 1.609375 1.15625 2.765625q1.15625 1.140625 2.796875 1.140625q1.640625 0 2.796875 -1.140625q1.15625 -1.15625 1.15625 -2.765625zm8.086426 -3.59375l0 7.15625l3.78125 0q0.3125 0 0.4375 0.125q0.140625 0.109375 0.140625 0.296875q0 0.1875 -0.140625 0.3125q-0.125 0.125 -0.4375 0.125l-6.734375 0q-0.3125 0 -0.453125 -0.125q-0.125 -0.125 -0.125 -0.3125q0 -0.1875 0.125 -0.296875q0.140625 -0.125 0.453125 -0.125l2.078125 0l0 -7.15625l-1.859375 0q-0.3125 0 -0.453125 -0.109375q-0.125 -0.125 -0.125 -0.328125q0 -0.1875 0.125 -0.296875q0.140625 -0.125 0.453125 -0.125l1.859375 0l0 -1.3125q0 -1.078125 0.875 -1.875q0.890625 -0.8125 2.34375 -0.8125q1.21875 0 2.609375 0.234375q0.515625 0.078125 0.625 0.203125q0.109375 0.109375 0.109375 0.28125q0 0.1875 -0.125 0.3125q-0.125 0.109375 -0.328125 0.109375q-0.078125 0 -0.28125 -0.03125q-1.546875 -0.234375 -2.609375 -0.234375q-1.125 0 -1.734375 0.5625q-0.609375 0.546875 -0.609375 1.25l0 1.3125l4.03125 0q0.296875 0 0.4375 0.125q0.140625 0.109375 0.140625 0.3125q0 0.1875 -0.140625 0.3125q-0.140625 0.109375 -0.4375 0.109375l-4.03125 0zm28.250977 8.015625l0 -1.234375q-1.875 1.578125 -4.015625 1.578125q-1.546875 0 -2.421875 -0.78125q-0.859375 -0.796875 -0.859375 -1.9375q0 -1.25 1.140625 -2.171875q1.15625 -0.9375 3.359375 -0.9375q0.59375 0 1.28125 0.078125q0.703125 0.078125 1.515625 0.234375l0 -1.390625q0 -0.703125 -0.65625 -1.21875q-0.65625 -0.53125 -1.96875 -0.53125q-1.015625 0 -2.828125 0.578125q-0.328125 0.109375 -0.421875 0.109375q-0.15625 0 -0.28125 -0.125q-0.109375 -0.125 -0.109375 -0.3125q0 -0.171875 0.09375 -0.28125q0.15625 -0.140625 1.171875 -0.40625q1.59375 -0.4375 2.40625 -0.4375q1.640625 0 2.546875 0.8125q0.921875 0.796875 0.921875 1.8125l0 5.703125l1.140625 0q0.3125 0 0.4375 0.125q0.140625 0.109375 0.140625 0.296875q0 0.1875 -0.140625 0.3125q-0.125 0.125 -0.4375 0.125l-2.015625 0zm0 -4.28125q-0.609375 -0.171875 -1.296875 -0.25q-0.671875 -0.09375 -1.40625 -0.09375q-1.890625 0 -2.9375 0.8125q-0.796875 0.609375 -0.796875 1.4375q0 0.78125 0.609375 1.328125q0.609375 0.53125 1.78125 0.53125q1.109375 0 2.0625 -0.453125q0.96875 -0.453125 1.984375 -1.421875l0 -1.890625zm8.352051 -4.59375l4.671875 0q0.3125 0 0.4375 0.125q0.140625 0.109375 0.140625 0.3125q0 0.1875 -0.140625 0.3125q-0.125 0.109375 -0.4375 0.109375l-4.671875 0l0 5.734375q0 0.75 0.59375 1.265625q0.609375 0.5 1.765625 0.5q0.875 0 1.890625 -0.265625q1.015625 -0.265625 1.578125 -0.59375q0.203125 -0.125 0.328125 -0.125q0.171875 0 0.296875 0.125q0.125 0.125 0.125 0.296875q0 0.15625 -0.140625 0.28125q-0.328125 0.34375 -1.59375 0.75q-1.265625 0.390625 -2.421875 0.390625q-1.515625 0 -2.40625 -0.703125q-0.890625 -0.71875 -0.890625 -1.921875l0 -5.734375l-1.578125 0q-0.3125 0 -0.453125 -0.109375q-0.125 -0.125 -0.125 -0.328125q0 -0.1875 0.125 -0.296875q0.140625 -0.125 0.453125 -0.125l1.578125 0l0 -2.546875q0 -0.3125 0.125 -0.4375q0.125 -0.140625 0.3125 -0.140625q0.1875 0 0.3125 0.140625q0.125 0.125 0.125 0.4375l0 2.546875zm12.602051 0l4.671875 0q0.3125 0 0.4375 0.125q0.140625 0.109375 0.140625 0.3125q0 0.1875 -0.140625 0.3125q-0.125 0.109375 -0.4375 0.109375l-4.671875 0l0 5.734375q0 0.75 0.59375 1.265625q0.609375 0.5 1.765625 0.5q0.875 0 1.890625 -0.265625q1.015625 -0.265625 1.578125 -0.59375q0.203125 -0.125 0.328125 -0.125q0.171875 0 0.296875 0.125q0.125 0.125 0.125 0.296875q0 0.15625 -0.140625 0.28125q-0.328125 0.34375 -1.59375 0.75q-1.265625 0.390625 -2.421875 0.390625q-1.515625 0 -2.40625 -0.703125q-0.890625 -0.71875 -0.890625 -1.921875l0 -5.734375l-1.578125 0q-0.3125 0 -0.453125 -0.109375q-0.125 -0.125 -0.125 -0.328125q0 -0.1875 0.125 -0.296875q0.140625 -0.125 0.453125 -0.125l1.578125 0l0 -2.546875q0 -0.3125 0.125 -0.4375q0.125 -0.140625 0.3125 -0.140625q0.1875 0 0.3125 0.140625q0.125 0.125 0.125 0.4375l0 2.546875zm19.03955 4.640625l-8.78125 0q0.21875 1.671875 1.390625 2.703125q1.1875 1.015625 2.90625 1.015625q0.96875 0 2.015625 -0.3125q1.0625 -0.328125 1.734375 -0.859375q0.1875 -0.140625 0.34375 -0.140625q0.15625 0 0.28125 0.125q0.125 0.125 0.125 0.296875q0 0.171875 -0.171875 0.34375q-0.484375 0.515625 -1.75 0.96875q-1.25 0.4375 -2.578125 0.4375q-2.203125 0 -3.6875 -1.453125q-1.484375 -1.453125 -1.484375 -3.515625q0 -1.875 1.390625 -3.21875q1.390625 -1.34375 3.4375 -1.34375q2.109375 0 3.46875 1.390625q1.375 1.375 1.359375 3.5625zm-0.875 -0.875q-0.265625 -1.421875 -1.359375 -2.3125q-1.078125 -0.890625 -2.59375 -0.890625q-1.5 0 -2.59375 0.890625q-1.078125 0.875 -1.359375 2.3125l7.90625 0zm4.883301 -3.765625l0 0.859375q1.09375 -1.171875 2.203125 -1.171875q0.671875 0 1.171875 0.359375q0.5 0.34375 0.84375 1.0625q0.578125 -0.71875 1.15625 -1.0625q0.59375 -0.359375 1.1875 -0.359375q0.9375 0 1.484375 0.609375q0.734375 0.78125 0.734375 1.703125l0 6.015625l0.734375 0q0.296875 0 0.421875 0.125q0.140625 0.109375 0.140625 0.296875q0 0.1875 -0.140625 0.3125q-0.125 0.125 -0.421875 0.125l-1.59375 0l0 -6.796875q0 -0.65625 -0.40625 -1.078125q-0.390625 -0.4375 -0.921875 -0.4375q-0.46875 0 -1.0 0.359375q-0.515625 0.34375 -1.1875 1.375l0 5.71875l0.71875 0q0.3125 0 0.4375 0.125q0.140625 0.109375 0.140625 0.296875q0 0.1875 -0.140625 0.3125q-0.125 0.125 -0.4375 0.125l-1.578125 0l0 -6.734375q0 -0.6875 -0.40625 -1.125q-0.40625 -0.453125 -0.90625 -0.453125q-0.46875 0 -0.921875 0.296875q-0.625 0.421875 -1.3125 1.4375l0 5.71875l0.734375 0q0.3125 0 0.4375 0.125q0.140625 0.109375 0.140625 0.296875q0 0.1875 -0.140625 0.3125q-0.125 0.125 -0.4375 0.125l-2.3125 0q-0.3125 0 -0.453125 -0.125q-0.125 -0.125 -0.125 -0.3125q0 -0.1875 0.125 -0.296875q0.140625 -0.125 0.453125 -0.125l0.71875 0l0 -7.15625l-0.71875 0q-0.3125 0 -0.453125 -0.109375q-0.125 -0.125 -0.125 -0.328125q0 -0.1875 0.125 -0.296875q0.140625 -0.125 0.453125 -0.125l1.578125 0zm13.289551 0l0 1.5625q0.765625 -0.9375 1.640625 -1.40625q0.890625 -0.46875 2.078125 -0.46875q1.28125 0 2.359375 0.59375q1.078125 0.59375 1.65625 1.65625q0.59375 1.0625 0.59375 2.234375q0 1.859375 -1.328125 3.171875q-1.328125 1.3125 -3.265625 1.3125q-2.3125 0 -3.734375 -1.875l0 5.1875l2.078125 0q0.3125 0 0.4375 0.109375q0.140625 0.125 0.140625 0.328125q0 0.1875 -0.140625 0.296875q-0.125 0.125 -0.4375 0.125l-4.109375 0q-0.296875 0 -0.4375 -0.125q-0.125 -0.109375 -0.125 -0.296875q0 -0.203125 0.125 -0.328125q0.140625 -0.109375 0.4375 -0.109375l1.15625 0l0 -11.109375l-1.15625 0q-0.296875 0 -0.4375 -0.109375q-0.125 -0.125 -0.125 -0.328125q0 -0.1875 0.125 -0.296875q0.140625 -0.125 0.4375 -0.125l2.03125 0zm7.453125 4.171875q0 -1.484375 -1.078125 -2.546875q-1.078125 -1.0625 -2.640625 -1.0625q-1.5625 0 -2.65625 1.0625q-1.078125 1.0625 -1.078125 2.546875q0 1.484375 1.078125 2.546875q1.09375 1.0625 2.65625 1.0625q1.546875 0 2.625 -1.046875q1.09375 -1.0625 1.09375 -2.5625zm6.617676 -4.171875l4.671875 0q0.3125 0 0.4375 0.125q0.140625 0.109375 0.140625 0.3125q0 0.1875 -0.140625 0.3125q-0.125 0.109375 -0.4375 0.109375l-4.671875 0l0 5.734375q0 0.75 0.59375 1.265625q0.609375 0.5 1.765625 0.5q0.875 0 1.890625 -0.265625q1.015625 -0.265625 1.578125 -0.59375q0.203125 -0.125 0.328125 -0.125q0.171875 0 0.296875 0.125q0.125 0.125 0.125 0.296875q0 0.15625 -0.140625 0.28125q-0.328125 0.34375 -1.59375 0.75q-1.265625 0.390625 -2.421875 0.390625q-1.515625 0 -2.40625 -0.703125q-0.890625 -0.71875 -0.890625 -1.921875l0 -5.734375l-1.578125 0q-0.3125 0 -0.453125 -0.109375q-0.125 -0.125 -0.125 -0.328125q0 -0.1875 0.125 -0.296875q0.140625 -0.125 0.453125 -0.125l1.578125 0l0 -2.546875q0 -0.3125 0.125 -0.4375q0.125 -0.140625 0.3125 -0.140625q0.1875 0 0.3125 0.140625q0.125 0.125 0.125 0.4375l0 2.546875zm17.211426 0.5625q0 -0.296875 0.125 -0.421875q0.125 -0.140625 0.3125 -0.140625q0.1875 0 0.3125 0.140625q0.125 0.125 0.125 0.4375l0 1.484375q0 0.296875 -0.125 0.4375q-0.125 0.125 -0.3125 0.125q-0.171875 0 -0.296875 -0.109375q-0.109375 -0.109375 -0.140625 -0.375q-0.0625 -0.609375 -0.625 -1.0q-0.84375 -0.578125 -2.234375 -0.578125q-1.4375 0 -2.234375 0.578125q-0.609375 0.4375 -0.609375 0.984375q0 0.625 0.71875 1.03125q0.484375 0.28125 1.859375 0.4375q1.796875 0.1875 2.5 0.4375q0.984375 0.359375 1.46875 1.0q0.5 0.640625 0.5 1.375q0 1.09375 -1.0625 1.953125q-1.046875 0.859375 -3.09375 0.859375q-2.046875 0 -3.34375 -1.046875q0 0.359375 -0.046875 0.46875q-0.03125 0.09375 -0.140625 0.171875q-0.109375 0.0625 -0.25 0.0625q-0.171875 0 -0.296875 -0.125q-0.125 -0.140625 -0.125 -0.453125l0 -1.765625q0 -0.3125 0.109375 -0.4375q0.125 -0.140625 0.3125 -0.140625q0.1875 0 0.3125 0.125q0.140625 0.125 0.140625 0.34375q0 0.46875 0.234375 0.796875q0.359375 0.484375 1.140625 0.8125q0.78125 0.328125 1.921875 0.328125q1.6875 0 2.5 -0.625q0.828125 -0.640625 0.828125 -1.328125q0 -0.796875 -0.84375 -1.28125q-0.828125 -0.484375 -2.4375 -0.640625q-1.609375 -0.171875 -2.3125 -0.4375q-0.6875 -0.265625 -1.078125 -0.796875q-0.390625 -0.53125 -0.390625 -1.15625q0 -1.109375 1.078125 -1.75q1.09375 -0.65625 2.609375 -0.65625q1.78125 0 2.890625 0.875z" fill-rule="nonzero"/><path fill="#d9ead3" d="m1.175853 147.95808l0 0c0 -3.6558838 2.9636757 -6.6195526 6.6195545 -6.6195526l203.70576 0c1.7556152 0 3.439331 0.6974182 4.6807404 1.9388275c1.2414093 1.2414093 1.9388123 2.9251099 1.9388123 4.680725l0 26.477432c0 3.6558685 -2.9636688 6.6195526 -6.6195526 6.6195526l-203.70576 0l0 0c-3.655879 0 -6.6195545 -2.963684 -6.6195545 -6.6195526z" fill-rule="evenodd"/><path stroke="#000000" stroke-width="2.0" stroke-linejoin="round" stroke-linecap="butt" d="m1.175853 147.95808l0 0c0 -3.6558838 2.9636757 -6.6195526 6.6195545 -6.6195526l203.70576 0c1.7556152 0 3.439331 0.6974182 4.6807404 1.9388275c1.2414093 1.2414093 1.9388123 2.9251099 1.9388123 4.680725l0 26.477432c0 3.6558685 -2.9636688 6.6195526 -6.6195526 6.6195526l-203.70576 0l0 0c-3.655879 0 -6.6195545 -2.963684 -6.6195545 -6.6195526z" fill-rule="evenodd"/><path fill="#000000" d="m51.305763 164.44243l-8.78125 0q0.21875 1.671875 1.390625 2.703125q1.1875 1.015625 2.90625 1.015625q0.96875 0 2.015625 -0.3125q1.0625 -0.328125 1.734375 -0.859375q0.1875 -0.140625 0.34375 -0.140625q0.15625 0 0.28125 0.125q0.125 0.125 0.125 0.296875q0 0.171875 -0.171875 0.34375q-0.484375 0.515625 -1.75 0.96875q-1.25 0.4375 -2.578125 0.4375q-2.203125 0 -3.6875 -1.453125q-1.484375 -1.453125 -1.484375 -3.515625q0 -1.875 1.390625 -3.21875q1.390625 -1.34375 3.4375 -1.34375q2.109375 0 3.46875 1.390625q1.375 1.375 1.359375 3.5625zm-0.875 -0.875q-0.265625 -1.421875 -1.359375 -2.3125q-1.078125 -0.890625 -2.59375 -0.890625q-1.5 0 -2.59375 0.890625q-1.078125 0.875 -1.359375 2.3125l7.90625 0zm14.539551 10.859375l-11.453125 0q-0.3125 0 -0.453125 -0.125q-0.125 -0.109375 -0.125 -0.296875q0 -0.203125 0.125 -0.328125q0.140625 -0.109375 0.453125 -0.109375l11.453125 0q0.3125 0 0.4375 0.109375q0.140625 0.125 0.140625 0.328125q0 0.1875 -0.140625 0.296875q-0.125 0.125 -0.4375 0.125zm10.461426 -13.765625l0 -0.28125q0 -0.3125 0.125 -0.4375q0.125 -0.140625 0.3125 -0.140625q0.1875 0 0.3125 0.140625q0.125 0.125 0.125 0.4375l0 1.953125q-0.015625 0.3125 -0.140625 0.453125q-0.109375 0.125 -0.296875 0.125q-0.171875 0 -0.296875 -0.109375q-0.109375 -0.125 -0.140625 -0.40625q-0.0625 -0.71875 -0.953125 -1.375q-0.890625 -0.65625 -2.421875 -0.65625q-1.90625 0 -2.90625 1.203125q-1.0 1.1875 -1.0 2.734375q0 1.671875 1.09375 2.765625q1.109375 1.09375 2.84375 1.09375q1.015625 0 2.046875 -0.375q1.046875 -0.375 1.890625 -1.1875q0.203125 -0.203125 0.375 -0.203125q0.171875 0 0.28125 0.125q0.125 0.109375 0.125 0.28125q0 0.4375 -1.03125 1.109375q-1.671875 1.109375 -3.71875 1.109375q-2.078125 0 -3.421875 -1.328125q-1.34375 -1.328125 -1.34375 -3.375q0 -2.078125 1.359375 -3.453125q1.375 -1.375 3.46875 -1.375q1.96875 0 3.3125 1.171875zm11.492676 8.015625l0 -1.234375q-1.875 1.578125 -4.015625 1.578125q-1.546875 0 -2.421875 -0.78125q-0.859375 -0.796875 -0.859375 -1.9375q0 -1.25 1.140625 -2.171875q1.15625 -0.9375 3.359375 -0.9375q0.59375 0 1.28125 0.078125q0.703125 0.078125 1.515625 0.234375l0 -1.390625q0 -0.703125 -0.65625 -1.21875q-0.65625 -0.53125 -1.96875 -0.53125q-1.015625 0 -2.828125 0.578125q-0.328125 0.109375 -0.421875 0.109375q-0.15625 0 -0.28125 -0.125q-0.109375 -0.125 -0.109375 -0.3125q0 -0.171875 0.09375 -0.28125q0.15625 -0.140625 1.171875 -0.40625q1.59375 -0.4375 2.40625 -0.4375q1.640625 0 2.546875 0.8125q0.921875 0.796875 0.921875 1.8125l0 5.703125l1.140625 0q0.3125 0 0.4375 0.125q0.140625 0.109375 0.140625 0.296875q0 0.1875 -0.140625 0.3125q-0.125 0.125 -0.4375 0.125l-2.015625 0zm0 -4.28125q-0.609375 -0.171875 -1.296875 -0.25q-0.671875 -0.09375 -1.40625 -0.09375q-1.890625 0 -2.9375 0.8125q-0.796875 0.609375 -0.796875 1.4375q0 0.78125 0.609375 1.328125q0.609375 0.53125 1.78125 0.53125q1.109375 0 2.0625 -0.453125q0.96875 -0.453125 1.984375 -1.421875l0 -1.890625zm10.555176 -8.59375l0 12.015625l3.390625 0q0.3125 0 0.4375 0.125q0.140625 0.109375 0.140625 0.296875q0 0.1875 -0.140625 0.3125q-0.125 0.125 -0.4375 0.125l-7.640625 0q-0.296875 0 -0.4375 -0.125q-0.125 -0.125 -0.125 -0.3125q0 -0.1875 0.125 -0.296875q0.140625 -0.125 0.4375 -0.125l3.390625 0l0 -11.140625l-2.484375 0q-0.296875 0 -0.4375 -0.125q-0.140625 -0.125 -0.140625 -0.3125q0 -0.1875 0.125 -0.3125q0.140625 -0.125 0.453125 -0.125l3.34375 0zm12.602051 0l0 12.015625l3.390625 0q0.3125 0 0.4375 0.125q0.140625 0.109375 0.140625 0.296875q0 0.1875 -0.140625 0.3125q-0.125 0.125 -0.4375 0.125l-7.640625 0q-0.296875 0 -0.4375 -0.125q-0.125 -0.125 -0.125 -0.3125q0 -0.1875 0.125 -0.296875q0.140625 -0.125 0.4375 -0.125l3.390625 0l0 -11.140625l-2.484375 0q-0.296875 0 -0.4375 -0.125q-0.140625 -0.125 -0.140625 -0.3125q0 -0.1875 0.125 -0.3125q0.140625 -0.125 0.453125 -0.125l3.34375 0zm16.836426 8.640625l-8.78125 0q0.21875 1.671875 1.390625 2.703125q1.1875 1.015625 2.90625 1.015625q0.96875 0 2.015625 -0.3125q1.0625 -0.328125 1.734375 -0.859375q0.1875 -0.140625 0.34375 -0.140625q0.15625 0 0.28125 0.125q0.125 0.125 0.125 0.296875q0 0.171875 -0.171875 0.34375q-0.484375 0.515625 -1.75 0.96875q-1.25 0.4375 -2.578125 0.4375q-2.203125 0 -3.6875 -1.453125q-1.484375 -1.453125 -1.484375 -3.515625q0 -1.875 1.390625 -3.21875q1.390625 -1.34375 3.4375 -1.34375q2.109375 0 3.46875 1.390625q1.375 1.375 1.359375 3.5625zm-0.875 -0.875q-0.265625 -1.421875 -1.359375 -2.3125q-1.078125 -0.890625 -2.59375 -0.890625q-1.5 0 -2.59375 0.890625q-1.078125 0.875 -1.359375 2.3125l7.90625 0zm7.773918 -3.765625l0 2.171875q1.6875 -1.515625 2.515625 -1.953125q0.84375 -0.4375 1.546875 -0.4375q0.765625 0 1.421875 0.515625q0.671875 0.515625 0.671875 0.78125q0 0.203125 -0.125 0.328125q-0.125 0.125 -0.328125 0.125q-0.09375 0 -0.171875 -0.03125q-0.078125 -0.03125 -0.265625 -0.234375q-0.359375 -0.359375 -0.625 -0.484375q-0.265625 -0.140625 -0.53125 -0.140625q-0.5625 0 -1.359375 0.453125q-0.78125 0.453125 -2.75 2.203125l0 4.71875l3.8125 0q0.328125 0 0.453125 0.125q0.140625 0.109375 0.140625 0.296875q0 0.1875 -0.140625 0.3125q-0.125 0.125 -0.453125 0.125l-6.75 0q-0.3125 0 -0.453125 -0.109375q-0.125 -0.125 -0.125 -0.3125q0 -0.171875 0.125 -0.28125q0.140625 -0.125 0.453125 -0.125l2.078125 0l0 -7.1875l-1.59375 0q-0.296875 0 -0.4375 -0.109375q-0.125 -0.125 -0.125 -0.328125q0 -0.1875 0.125 -0.296875q0.125 -0.125 0.4375 -0.125l2.453125 0zm13.461426 6.40625l0.359375 0q0.578125 0 0.984375 0.40625q0.421875 0.40625 0.421875 0.96875q0 0.59375 -0.421875 1.0q-0.40625 0.40625 -0.984375 0.40625l-0.359375 0q-0.578125 0 -0.984375 -0.40625q-0.40625 -0.40625 -0.40625 -0.984375q0 -0.59375 0.40625 -0.984375q0.421875 -0.40625 0.984375 -0.40625zm9.539551 -6.40625l0 1.5625q0.765625 -0.9375 1.640625 -1.40625q0.890625 -0.46875 2.078125 -0.46875q1.28125 0 2.359375 0.59375q1.078125 0.59375 1.65625 1.65625q0.59375 1.0625 0.59375 2.234375q0 1.859375 -1.328125 3.171875q-1.328125 1.3125 -3.265625 1.3125q-2.3125 0 -3.734375 -1.875l0 5.1875l2.078125 0q0.3125 0 0.4375 0.109375q0.140625 0.125 0.140625 0.328125q0 0.1875 -0.140625 0.296875q-0.125 0.125 -0.4375 0.125l-4.109375 0q-0.296875 0 -0.4375 -0.125q-0.125 -0.109375 -0.125 -0.296875q0 -0.203125 0.125 -0.328125q0.140625 -0.109375 0.4375 -0.109375l1.15625 0l0 -11.109375l-1.15625 0q-0.296875 0 -0.4375 -0.109375q-0.125 -0.125 -0.125 -0.328125q0 -0.1875 0.125 -0.296875q0.140625 -0.125 0.4375 -0.125l2.03125 0zm7.453125 4.171875q0 -1.484375 -1.078125 -2.546875q-1.078125 -1.0625 -2.640625 -1.0625q-1.5625 0 -2.65625 1.0625q-1.078125 1.0625 -1.078125 2.546875q0 1.484375 1.078125 2.546875q1.09375 1.0625 2.65625 1.0625q1.546875 0 2.625 -1.046875q1.09375 -1.0625 1.09375 -2.5625zm8.445801 4.703125l-4.0 -8.015625l-0.25 0q-0.3125 0 -0.453125 -0.109375q-0.125 -0.125 -0.125 -0.3125q0 -0.140625 0.0625 -0.234375q0.0625 -0.109375 0.171875 -0.15625q0.109375 -0.046875 0.34375 -0.046875l2.34375 0q0.3125 0 0.4375 0.125q0.140625 0.109375 0.140625 0.3125q0 0.1875 -0.140625 0.3125q-0.125 0.109375 -0.4375 0.109375l-1.15625 0l3.515625 7.078125l3.46875 -7.078125l-1.15625 0q-0.3125 0 -0.453125 -0.109375q-0.125 -0.125 -0.125 -0.328125q0 -0.1875 0.125 -0.296875q0.140625 -0.125 0.453125 -0.125l2.34375 0q0.328125 0 0.453125 0.125q0.140625 0.109375 0.140625 0.3125q0 0.125 -0.09375 0.25q-0.078125 0.109375 -0.1875 0.140625q-0.09375 0.03125 -0.5625 0.03125l-5.453125 11.109375l1.34375 0q0.296875 0 0.4375 0.109375q0.140625 0.125 0.140625 0.328125q0 0.1875 -0.140625 0.296875q-0.140625 0.125 -0.4375 0.125l-4.96875 0q-0.3125 0 -0.453125 -0.125q-0.125 -0.109375 -0.125 -0.296875q0 -0.203125 0.125 -0.328125q0.140625 -0.109375 0.453125 -0.109375l2.703125 0l1.515625 -3.09375z" fill-rule="nonzero"/><path fill="#000000" fill-opacity="0.0" d="m275.7835 123.04462l117.3858 0l0 45.259842l-117.3858 0z" fill-rule="evenodd"/><path fill="#000000" d="m287.846 143.64961l0 1.5625q0.765625 -0.9375 1.640625 -1.40625q0.890625 -0.46875 2.078125 -0.46875q1.28125 0 2.359375 0.59375q1.078125 0.59375 1.65625 1.65625q0.59375 1.0625 0.59375 2.234375q0 1.859375 -1.328125 3.171875q-1.328125 1.3125 -3.265625 1.3125q-2.3125 0 -3.734375 -1.875l0 5.1875l2.078125 0q0.3125 0 0.4375 0.109375q0.140625 0.125 0.140625 0.328125q0 0.1875 -0.140625 0.296875q-0.125 0.125 -0.4375 0.125l-4.109375 0q-0.296875 0 -0.4375 -0.125q-0.125 -0.109375 -0.125 -0.296875q0 -0.203125 0.125 -0.328125q0.140625 -0.109375 0.4375 -0.109375l1.15625 0l0 -11.109375l-1.15625 0q-0.296875 0 -0.4375 -0.109375q-0.125 -0.125 -0.125 -0.328125q0 -0.1875 0.125 -0.296875q0.140625 -0.125 0.4375 -0.125l2.03125 0zm7.453125 4.171875q0 -1.484375 -1.078125 -2.546875q-1.078125 -1.0625 -2.640625 -1.0625q-1.5625 0 -2.65625 1.0625q-1.078125 1.0625 -1.078125 2.546875q0 1.484375 1.078125 2.546875q1.09375 1.0625 2.65625 1.0625q1.546875 0 2.625 -1.046875q1.09375 -1.0625 1.09375 -2.5625zm7.352051 -4.171875l0 2.171875q1.6875 -1.515625 2.515625 -1.953125q0.84375 -0.4375 1.546875 -0.4375q0.765625 0 1.421875 0.515625q0.671875 0.515625 0.671875 0.78125q0 0.203125 -0.125 0.328125q-0.125 0.125 -0.328125 0.125q-0.09375 0 -0.171875 -0.03125q-0.078125 -0.03125 -0.265625 -0.234375q-0.359375 -0.359375 -0.625 -0.484375q-0.265625 -0.140625 -0.53125 -0.140625q-0.5625 0 -1.359375 0.453125q-0.78125 0.453125 -2.75 2.203125l0 4.71875l3.8125 0q0.328125 0 0.453125 0.125q0.140625 0.109375 0.140625 0.296875q0 0.1875 -0.140625 0.3125q-0.125 0.125 -0.453125 0.125l-6.75 0q-0.3125 0 -0.453125 -0.109375q-0.125 -0.125 -0.125 -0.3125q0 -0.171875 0.125 -0.28125q0.140625 -0.125 0.453125 -0.125l2.078125 0l0 -7.1875l-1.59375 0q-0.296875 0 -0.4375 -0.109375q-0.125 -0.125 -0.125 -0.328125q0 -0.1875 0.125 -0.296875q0.125 -0.125 0.4375 -0.125l2.453125 0zm18.4458 4.453125q0 1.96875 -1.40625 3.375q-1.40625 1.390625 -3.390625 1.390625q-2.015625 0 -3.421875 -1.40625q-1.40625 -1.40625 -1.40625 -3.359375q0 -1.96875 1.40625 -3.359375q1.40625 -1.40625 3.421875 -1.40625q1.984375 0 3.390625 1.390625q1.40625 1.390625 1.40625 3.375zm-0.859375 0q0 -1.625 -1.15625 -2.75q-1.15625 -1.140625 -2.796875 -1.140625q-1.640625 0 -2.796875 1.140625q-1.15625 1.140625 -1.15625 2.75q0 1.609375 1.15625 2.765625q1.15625 1.140625 2.796875 1.140625q1.640625 0 2.796875 -1.140625q1.15625 -1.15625 1.15625 -2.765625zm5.414551 -8.453125l0 5.71875q1.546875 -2.03125 3.75 -2.03125q1.890625 0 3.234375 1.375q1.34375 1.359375 1.34375 3.359375q0 2.0 -1.359375 3.40625q-1.359375 1.390625 -3.21875 1.390625q-2.25 0 -3.75 -2.03125l0 1.6875l-2.03125 0q-0.296875 0 -0.4375 -0.125q-0.125 -0.125 -0.125 -0.3125q0 -0.1875 0.125 -0.296875q0.140625 -0.125 0.4375 -0.125l1.15625 0l0 -11.140625l-1.15625 0q-0.296875 0 -0.4375 -0.125q-0.125 -0.125 -0.125 -0.3125q0 -0.1875 0.125 -0.3125q0.140625 -0.125 0.4375 -0.125l2.03125 0zm7.46875 8.453125q0 -1.625 -1.125 -2.75q-1.109375 -1.140625 -2.609375 -1.140625q-1.5 0 -2.625 1.140625q-1.109375 1.125 -1.109375 2.75q0 1.625 1.109375 2.765625q1.125 1.140625 2.625 1.140625q1.5 0 2.609375 -1.140625q1.125 -1.140625 1.125 -2.765625zm8.805176 -8.453125l0 12.015625l3.390625 0q0.3125 0 0.4375 0.125q0.140625 0.109375 0.140625 0.296875q0 0.1875 -0.140625 0.3125q-0.125 0.125 -0.4375 0.125l-7.640625 0q-0.296875 0 -0.4375 -0.125q-0.125 -0.125 -0.125 -0.3125q0 -0.1875 0.125 -0.296875q0.140625 -0.125 0.4375 -0.125l3.390625 0l0 -11.140625l-2.484375 0q-0.296875 0 -0.4375 -0.125q-0.140625 -0.125 -0.140625 -0.3125q0 -0.1875 0.125 -0.3125q0.140625 -0.125 0.453125 -0.125l3.34375 0zm16.836426 8.640625l-8.78125 0q0.21875 1.671875 1.390625 2.703125q1.1875 1.015625 2.90625 1.015625q0.96875 0 2.015625 -0.3125q1.0625 -0.328125 1.734375 -0.859375q0.1875 -0.140625 0.34375 -0.140625q0.15625 0 0.28125 0.125q0.125 0.125 0.125 0.296875q0 0.171875 -0.171875 0.34375q-0.484375 0.515625 -1.75 0.96875q-1.25 0.4375 -2.578125 0.4375q-2.203125 0 -3.6875 -1.453125q-1.484375 -1.453125 -1.484375 -3.515625q0 -1.875 1.390625 -3.21875q1.390625 -1.34375 3.4375 -1.34375q2.109375 0 3.46875 1.390625q1.375 1.375 1.359375 3.5625zm-0.875 -0.875q-0.265625 -1.421875 -1.359375 -2.3125q-1.078125 -0.890625 -2.59375 -0.890625q-1.5 0 -2.59375 0.890625q-1.078125 0.875 -1.359375 2.3125l7.90625 0zm4.883301 -3.765625l0 0.859375q1.09375 -1.171875 2.203125 -1.171875q0.671875 0 1.171875 0.359375q0.5 0.34375 0.84375 1.0625q0.578125 -0.71875 1.15625 -1.0625q0.59375 -0.359375 1.1875 -0.359375q0.9375 0 1.484375 0.609375q0.734375 0.78125 0.734375 1.703125l0 6.015625l0.734375 0q0.296875 0 0.421875 0.125q0.140625 0.109375 0.140625 0.296875q0 0.1875 -0.140625 0.3125q-0.125 0.125 -0.421875 0.125l-1.59375 0l0 -6.796875q0 -0.65625 -0.40625 -1.078125q-0.390625 -0.4375 -0.921875 -0.4375q-0.46875 0 -1.0 0.359375q-0.515625 0.34375 -1.1875 1.375l0 5.71875l0.71875 0q0.3125 0 0.4375 0.125q0.140625 0.109375 0.140625 0.296875q0 0.1875 -0.140625 0.3125q-0.125 0.125 -0.4375 0.125l-1.578125 0l0 -6.734375q0 -0.6875 -0.40625 -1.125q-0.40625 -0.453125 -0.90625 -0.453125q-0.46875 0 -0.921875 0.296875q-0.625 0.421875 -1.3125 1.4375l0 5.71875l0.734375 0q0.3125 0 0.4375 0.125q0.140625 0.109375 0.140625 0.296875q0 0.1875 -0.140625 0.3125q-0.125 0.125 -0.4375 0.125l-2.3125 0q-0.3125 0 -0.453125 -0.125q-0.125 -0.125 -0.125 -0.3125q0 -0.1875 0.125 -0.296875q0.140625 -0.125 0.453125 -0.125l0.71875 0l0 -7.15625l-0.71875 0q-0.3125 0 -0.453125 -0.109375q-0.125 -0.125 -0.125 -0.328125q0 -0.1875 0.125 -0.296875q0.140625 -0.125 0.453125 -0.125l1.578125 0z" fill-rule="nonzero"/><path fill="#000000" fill-opacity="0.0" d="m218.12073 161.1968l234.14175 0" fill-rule="evenodd"/><path stroke="#434343" stroke-width="2.0" stroke-linejoin="round" stroke-linecap="butt" d="m218.12073 161.1968l222.14175 0" fill-rule="evenodd"/><path fill="#434343" stroke="#434343" stroke-width="2.0" stroke-linecap="butt" d="m440.26248 164.50026l9.076172 -3.3034668l-9.076172 -3.3034515z" fill-rule="evenodd"/></g></svg>